<svg width="458" height="111" viewBox="0 0 458 111" fill="none" xmlns="http://www.w3.org/2000/svg">
<path d="M176 79H169.448L143.096 39.04V79H136.544V28.744H143.096L169.448 68.632V28.744H176V79ZM223.601 39.544V79H217.049V73.168C215.801 75.184 214.049 76.768 211.793 77.92C209.585 79.024 207.137 79.576 204.449 79.576C201.377 79.576 198.617 78.952 196.169 77.704C193.721 76.408 191.777 74.488 190.337 71.944C188.945 69.4 188.249 66.304 188.249 62.656V39.544H194.729V61.792C194.729 65.68 195.713 68.68 197.681 70.792C199.649 72.856 202.337 73.888 205.745 73.888C209.249 73.888 212.009 72.808 214.025 70.648C216.041 68.488 217.049 65.344 217.049 61.216V39.544H223.601ZM244.096 44.944V68.2C244.096 70.12 244.504 71.488 245.32 72.304C246.136 73.072 247.552 73.456 249.568 73.456H254.392V79H248.488C244.84 79 242.104 78.16 240.28 76.48C238.456 74.8 237.544 72.04 237.544 68.2V44.944H232.432V39.544H237.544V29.608H244.096V39.544H254.392V44.944H244.096ZM270.322 45.952C271.474 43.696 273.106 41.944 275.218 40.696C277.378 39.448 279.994 38.824 283.066 38.824V45.592H281.338C273.994 45.592 270.322 49.576 270.322 57.544V79H263.77V39.544H270.322V45.952ZM295.454 33.136C294.206 33.136 293.15 32.704 292.286 31.84C291.422 30.976 290.99 29.92 290.99 28.672C290.99 27.424 291.422 26.368 292.286 25.504C293.15 24.64 294.206 24.208 295.454 24.208C296.654 24.208 297.662 24.64 298.478 25.504C299.342 26.368 299.774 27.424 299.774 28.672C299.774 29.92 299.342 30.976 298.478 31.84C297.662 32.704 296.654 33.136 295.454 33.136ZM298.622 39.544V79H292.07V39.544H298.622ZM319.22 44.944V68.2C319.22 70.12 319.628 71.488 320.444 72.304C321.26 73.072 322.676 73.456 324.692 73.456H329.516V79H323.612C319.964 79 317.228 78.16 315.404 76.48C313.58 74.8 312.668 72.04 312.668 68.2V44.944H307.556V39.544H312.668V29.608H319.22V39.544H329.516V44.944H319.22ZM374.895 57.76C374.895 59.008 374.823 60.328 374.679 61.72H343.143C343.383 65.608 344.703 68.656 347.103 70.864C349.551 73.024 352.503 74.104 355.959 74.104C358.791 74.104 361.143 73.456 363.015 72.16C364.935 70.816 366.279 69.04 367.047 66.832H374.103C373.047 70.624 370.935 73.72 367.767 76.12C364.599 78.472 360.663 79.648 355.959 79.648C352.215 79.648 348.855 78.808 345.879 77.128C342.951 75.448 340.647 73.072 338.967 70C337.287 66.88 336.447 63.28 336.447 59.2C336.447 55.12 337.263 51.544 338.895 48.472C340.527 45.4 342.807 43.048 345.735 41.416C348.711 39.736 352.119 38.896 355.959 38.896C359.703 38.896 363.015 39.712 365.895 41.344C368.775 42.976 370.983 45.232 372.519 48.112C374.103 50.944 374.895 54.16 374.895 57.76ZM368.127 56.392C368.127 53.896 367.575 51.76 366.471 49.984C365.367 48.16 363.855 46.792 361.935 45.88C360.063 44.92 357.975 44.44 355.671 44.44C352.359 44.44 349.527 45.496 347.175 47.608C344.871 49.72 343.551 52.648 343.215 56.392H368.127ZM382.535 59.2C382.535 55.12 383.351 51.568 384.983 48.544C386.615 45.472 388.871 43.096 391.751 41.416C394.679 39.736 398.015 38.896 401.759 38.896C406.607 38.896 410.591 40.072 413.711 42.424C416.879 44.776 418.967 48.04 419.975 52.216H412.919C412.247 49.816 410.927 47.92 408.959 46.528C407.039 45.136 404.639 44.44 401.759 44.44C398.015 44.44 394.991 45.736 392.687 48.328C390.383 50.872 389.231 54.496 389.231 59.2C389.231 63.952 390.383 67.624 392.687 70.216C394.991 72.808 398.015 74.104 401.759 74.104C404.639 74.104 407.039 73.432 408.959 72.088C410.879 70.744 412.199 68.824 412.919 66.328H419.975C418.919 70.36 416.807 73.6 413.639 76.048C410.471 78.448 406.511 79.648 401.759 79.648C398.015 79.648 394.679 78.808 391.751 77.128C388.871 75.448 386.615 73.072 384.983 70C383.351 66.928 382.535 63.328 382.535 59.2Z" fill="#3F6328"/>
<line x1="83" y1="110" x2="458" y2="110" stroke="#76A758" stroke-width="2"/>
<path fill-rule="evenodd" clip-rule="evenodd" d="M49.0399 6.73828C47.3712 7.50816 46.1165 8.64464 45.8784 10.4873C44.485 10.568 43.1984 10.4007 42.072 10.7506C37.8026 12.0778 33.5701 13.531 29.3639 15.0488C28.7162 15.2824 28.029 16.0065 27.7825 16.6631C25.7853 21.9803 22.8648 27.054 23.3444 33.0046C18.7067 34.6016 18.7363 38.1443 20.9513 40.962C23.0874 43.6788 25.3136 46.3248 27.5327 48.9746C27.9763 49.5044 28.3865 49.8246 28.0691 50.7049C26.6892 54.5311 27.7971 58.286 30.8247 60.5402C33.91 62.8378 37.7344 62.7529 41.1523 60.3353C41.4416 60.1307 41.8518 59.9056 42.1633 59.9555C45.1649 60.4371 48.1576 60.9751 51.2497 61.5143C50.6433 63.2041 50.0032 65.2522 49.1816 67.2249C46.8927 72.7203 44.5734 78.204 42.1794 83.6539C40.3301 87.8643 43.0637 93.0096 47.512 93.3774C48.0912 93.4255 48.8615 92.9779 49.2685 92.5165C49.4732 92.2843 49.1927 91.4023 48.8853 91.0058C48.6349 90.682 48.0267 90.6148 47.5632 90.483C44.8826 89.7202 43.702 87.0583 44.9602 84.5808C45.2697 83.9718 45.6474 83.3912 45.8975 82.7593C48.6648 75.7711 51.4066 68.7732 54.178 61.7867C54.4067 61.2102 54.8002 60.6998 55.2078 60.0045C56.6141 63.5052 57.9031 66.6059 59.0866 69.7467C59.3314 70.3966 59.4283 71.2959 59.1776 71.9093C57.0519 77.1036 54.8333 82.2603 52.6332 87.4241C52.2294 88.3715 51.8361 89.3492 53.0826 89.9198C54.2108 90.4364 54.8058 89.6595 55.223 88.7537C56.2452 86.5362 57.2791 84.3231 58.2413 82.0798C59.3305 79.5395 60.3462 76.9674 61.3962 74.4042C63.1785 76.762 64.9026 79.0428 66.7663 81.5089C66.6079 81.8174 66.2963 82.4176 65.9906 83.0202C63.8696 87.2016 61.7353 91.3759 59.6368 95.5684C58.6649 97.5103 58.5777 99.537 59.4719 101.52C60.6437 104.118 62.7352 105.526 65.5579 105.607C68.5246 105.69 70.6574 104.226 72.0107 101.601C74.8313 96.1314 77.6431 90.6577 80.4821 85.1981C80.7173 84.7464 81.0516 84.2133 81.4774 84.0164C83.7144 82.9824 85.9954 82.0434 88.3431 81.037C88.3507 81.051 88.4956 81.2483 88.5729 81.4696C90.7965 87.8294 93.0719 94.171 95.2053 100.561C96.2594 103.718 98.9529 105.794 102.238 105.626C105.391 105.464 108.162 103.13 108.534 99.9136C108.712 98.3765 108.479 96.6579 107.953 95.1936C104.608 85.8664 101.128 76.5876 97.6991 67.2906C97.4821 66.7024 97.1597 66.091 97.1644 65.4929C97.218 58.6799 94.3421 53.5179 88.5794 49.9447C87.7917 49.4563 87.0196 48.9391 86.2109 48.488C84.7319 47.6629 83.2316 46.8772 81.6651 46.0348C83.6403 43.3495 85.603 40.8059 87.4304 38.1678C90.4041 33.8755 93.4112 29.5976 96.1765 25.1708C98.6908 21.1456 96.604 16.0382 92.1856 14.8145C91.1959 14.5404 90.2475 14.5166 89.9029 15.6769C89.56 16.8319 90.333 17.2997 91.3394 17.6108C94.0888 18.4611 95.3329 21.2921 93.7163 23.6683C89.0221 30.5694 84.1598 37.3563 79.3402 44.1713C79.1566 44.4305 78.6679 44.7257 78.4293 44.6524C76.5433 44.0715 74.6837 43.4055 72.837 42.773C73.858 38.0616 73.916 38.1029 76.5427 34.4091C79.768 29.8749 82.8846 25.2633 86.0463 20.6836C86.6518 19.8063 87.0354 18.8615 85.9154 18.1512C84.765 17.4218 84.1809 18.2985 83.5932 19.155C80.5556 23.5832 77.4944 27.995 74.4316 32.4062C74.2349 32.6894 73.9587 32.9172 73.6188 33.2776C73.2973 32.0478 72.95 31.0281 72.791 29.98C72.7088 29.4388 72.7893 28.7258 73.0897 28.2967C75.3581 25.0575 75.4515 21.2128 73.2472 18.1805C70.9897 15.0746 67.2359 13.9261 63.491 15.2707C62.7358 15.5419 62.2899 15.4697 61.7274 14.8686C58.6383 11.5668 55.153 8.76821 51.0898 6.73887H49.0399V6.73828Z" stroke="#3F6328" stroke-width="3"/>
<path fill-rule="evenodd" clip-rule="evenodd" d="M70.8378 36.2996C70.8519 48.6881 59.3022 59.2627 47.0158 58.111C39.3036 57.3875 33.3383 51.1653 32.8965 43.3846C32.1548 30.3157 43.9659 18.8309 56.7305 20.2087C65.033 21.1045 70.8282 27.7152 70.8378 36.2996ZM48.4582 41.8616C52.0125 41.8343 54.6765 39.1073 54.5573 36.1874C54.5184 35.2327 54.1219 34.5341 53.1144 34.5109C52.1935 34.4898 51.771 35.0874 51.6562 36.0011C51.3947 38.0827 50.7871 38.7058 48.7387 38.9629C47.7569 39.0862 47.0334 39.5531 47.289 40.5232C47.4524 41.1434 48.2181 41.6039 48.4582 41.8616ZM60.7885 29.6832C60.7932 28.7346 58.7552 26.6498 57.8036 26.6298C56.797 26.6084 55.9203 27.7 56.4728 28.4977C57.1416 29.4631 58.0475 30.343 59.0302 30.9844C59.7982 31.4851 60.7835 30.6468 60.7885 29.6832ZM40.4707 43.6981C40.274 43.8393 39.7226 44.0339 39.5733 44.3955C39.3976 44.8202 39.3859 45.5199 39.6307 45.8704C40.1507 46.6153 40.8215 47.2951 41.5538 47.8319C41.9049 48.0893 42.6346 48.1501 43.0146 47.9534C43.3906 47.7591 43.7089 47.146 43.7563 46.6855C43.8497 45.7782 41.6364 43.6831 40.4707 43.6981Z" stroke="#3F6328" stroke-width="3"/>
<path fill-rule="evenodd" clip-rule="evenodd" d="M91.7393 57.1416C91.1496 58.6837 90.7898 60.1308 90.0859 61.3832C86.164 68.3611 80.7053 73.8207 73.6832 77.6763C73.0873 78.0036 72.449 78.2692 71.8057 78.4917C69.5125 79.2853 68.3009 78.9358 66.8541 76.9974C63.0752 71.9346 60.4016 66.3168 58.5537 60.2846C58.3098 59.4888 58.4336 59.0624 59.2204 58.677C64.6695 56.0101 68.6991 51.9107 71.4146 46.4742C71.5873 46.1288 72.3612 45.7736 72.7228 45.8793C79.1464 47.7628 85.1049 50.6113 90.3374 54.8376C90.9839 55.36 91.2656 56.3365 91.7393 57.1416Z" stroke="#3F6328" stroke-width="3"/>
<path fill-rule="evenodd" clip-rule="evenodd" d="M93.9329 60.957C94.0644 62.2074 94.1604 63.4627 94.3379 64.7066C94.505 65.8789 94.5929 67.1008 94.9987 68.1953C97.8673 75.9276 100.809 83.6317 103.722 91.3472C103.803 91.5618 103.816 91.8025 103.837 91.9099C101.3 92.6355 98.8403 93.3387 96.2581 94.0775C95.2848 91.376 94.2781 88.5363 93.2384 85.7095C92.3119 83.19 91.3691 80.676 90.3935 78.175C89.8158 76.6948 88.9204 76.4213 87.712 77.4175C85.4152 79.3112 82.8622 80.6408 79.9886 81.4265C79.4273 81.58 78.8523 82.1817 78.5545 82.7259C76.6082 86.2783 74.7366 89.8715 72.841 93.4514C72.5912 93.9222 72.3441 94.3942 72.0964 94.8641C69.6983 93.6895 67.3576 92.5436 64.9326 91.3555C66.4672 88.4016 68.0021 85.411 69.5873 82.4471C69.7642 82.1163 70.2022 81.7711 70.5615 81.7171C74.2186 81.1674 77.197 79.2208 80.0455 77.0658C85.759 72.7433 90.4313 67.5141 93.9329 60.957Z" stroke="#3F6328" stroke-width="3"/>
<path fill-rule="evenodd" clip-rule="evenodd" d="M60.0507 17.5975C51.1688 15.9262 43.6276 18.4795 37.3856 24.7005C31.1163 30.9484 28.7522 38.5615 30.5462 47.5847C30.064 47.2786 29.7354 47.1664 29.5492 46.9375C27.3661 44.2568 25.1088 41.629 23.0712 38.8407C21.7855 37.0811 22.3392 36.1671 24.4743 35.998C26.4253 35.8439 26.7831 35.428 26.4177 33.5002C25.9167 30.8586 26.3966 28.3359 27.2826 25.8722C28.1745 23.3917 29.1352 20.935 30.1222 18.4906C30.2853 18.0865 30.6756 17.6283 31.0662 17.4856C34.6317 16.1854 38.1834 14.8203 41.8221 13.761C43.203 13.3592 44.8137 13.5808 46.2956 13.741C48.0592 13.9312 48.5886 13.6028 48.7066 11.7824C48.8483 9.59957 49.6061 9.17251 51.4909 10.2635C54.7609 12.1566 57.5958 14.5752 60.0507 17.5975Z" stroke="#3F6328" stroke-width="3"/>
<path fill-rule="evenodd" clip-rule="evenodd" d="M63.6495 93.9639C66.1099 95.1863 68.3956 96.3219 70.8048 97.5189C70.1618 98.7924 69.7149 99.8156 69.1492 100.767C68.0711 102.58 65.9143 103.221 64.0647 102.351C62.1606 101.455 61.2585 99.2958 62.0379 97.2893C62.4411 96.2509 63.0065 95.2756 63.6495 93.9639Z" stroke="#3F6328" stroke-width="3"/>
<path fill-rule="evenodd" clip-rule="evenodd" d="M102.006 102.73C99.8766 102.636 98.5613 101.543 97.9637 99.6668C97.1286 97.048 97.1412 96.9092 99.7023 96.0507C101.073 95.5913 102.531 95.3756 103.961 95.1197C104.283 95.0621 104.779 95.1834 104.985 95.4123C105.913 96.4431 106.026 99.6177 105.213 100.861C104.374 102.145 103.164 102.757 102.006 102.73Z" stroke="#3F6328" stroke-width="3"/>
<path fill-rule="evenodd" clip-rule="evenodd" d="M71.095 25.8644C69.8515 24.4902 68.7754 23.0857 67.4789 21.9293C66.1812 20.7717 64.6636 19.8618 63.252 18.8507C64.8709 17.1809 67.8522 17.1389 69.9188 18.8201C72.0859 20.5827 72.5752 23.5319 71.095 25.8644Z" stroke="#3F6328" stroke-width="3"/>
<path fill-rule="evenodd" clip-rule="evenodd" d="M38.8 58.3662C36.1255 59.8889 33.3219 59.402 31.5926 57.3154C29.9315 55.3107 29.9326 52.4123 31.6842 50.4199C33.3099 53.6726 35.5864 56.3245 38.8 58.3662Z" stroke="#3F6328" stroke-width="3"/>
<path fill-rule="evenodd" clip-rule="evenodd" d="M48.4583 41.8617C48.2182 41.604 47.4526 41.1435 47.2892 40.5236C47.0333 39.5535 47.7571 39.0865 48.7389 38.9633C50.7873 38.7062 51.3949 38.083 51.6564 36.0014C51.7711 35.0877 52.194 34.4902 53.1145 34.5113C54.1221 34.5345 54.5182 35.2327 54.5575 36.1878C54.6763 39.1071 52.0127 41.8344 48.4583 41.8617Z" stroke="#3F6328" stroke-width="3"/>
</svg>
