<?xml version="1.0" encoding="utf-8"?>
<!-- Generator: Adobe Illustrator 16.0.3, SVG Export Plug-In . SVG Version: 6.00 Build 0)  -->
<!DOCTYPE svg PUBLIC "-//W3C//DTD SVG 1.1//EN" "http://www.w3.org/Graphics/SVG/1.1/DTD/svg11.dtd">
<svg version="1.1" id="Capa_1" xmlns="http://www.w3.org/2000/svg" xmlns:xlink="http://www.w3.org/1999/xlink" x="0px" y="0px"
	 width="566.93px" height="354.33px" viewBox="0 0 566.93 354.33" enable-background="new 0 0 566.93 354.33" xml:space="preserve">
<path fill-rule="evenodd" clip-rule="evenodd" fill="none" stroke="#61884A" stroke-width="3" d="M220.955,301.115
	c-0.059-0.132-0.088-0.351-0.18-0.382c-12.698-4.25-18.787-14.062-21.974-26.239c-2.462-9.407-2.733-19.046-2.681-28.698
	c0.025-4.66,0.224-9.319,0.233-13.979c0.011-4.931,1.827-9.055,5.25-12.525c4.21-4.269,9.431-6.844,14.938-8.962
	c0.68-0.262,1.782-0.147,1.912-1.166c0.133-1.045-0.77-1.468-1.527-1.95c-11.33-7.226-17.265-17.547-17.747-30.988
	c-0.017-0.482-0.086-0.967-0.05-1.445c0.225-3.026-0.613-4.799-3.929-6.067c-6.261-2.396-9.833-9.149-9.42-15.934
	c0.402-6.616,5.001-12.591,11.501-14.584c1.534-0.471,1.934-1.098,2.011-2.606c0.541-10.684,0.136-21.372,0.282-32.056
	c0.013-0.956-0.027-1.988,0.308-2.847c0.569-1.459,1.782-2.243,3.416-2.157c1.724,0.091,2.961,0.969,3.264,2.659
	c0.266,1.485,0.232,3.033,0.238,4.553c0.023,5.947,0.06,11.894-0.023,17.84c-0.023,1.65,0.306,2.016,1.964,1.479
	c10.251-3.315,20.75-5.533,31.442-6.86c15.554-1.932,31.086-1.795,46.605,0.384c9.63,1.353,19.093,3.445,28.338,6.462
	c1.539,0.502,2.007,0.339,2-1.428c-0.062-17.037-0.053-34.075-0.007-51.111c0.003-1.417-0.358-2.073-1.797-2.541
	c-20.616-6.7-41.721-9.524-63.373-8.223c-14.733,0.886-29.112,3.572-43.146,8.168c-1.603,0.525-2.078,1.218-2.036,2.86
	c0.12,4.739,0.079,9.482,0.026,14.224c-0.031,2.748-1.563,4.402-3.798,4.299c-1.907-0.088-3.373-1.523-3.394-3.664
	c-0.065-6.509-0.026-13.019-0.023-19.528c0.001-1.979,1.146-3.076,2.894-3.687c12.151-4.241,24.59-7.233,37.367-8.878
	c3.191-0.411,6.494-0.133,9.571-1.356c8.039,0,16.077,0,24.115,0c2.147,0.942,4.471,0.681,6.711,0.917
	c14.104,1.489,27.825,4.618,41.203,9.307c2.4,0.841,2.927,2.595,2.921,4.915c-0.044,19.37-0.038,38.741-0.011,58.111
	c0.004,2.81,0.292,5.62,0.262,8.428c-0.015,1.413,0.561,1.86,1.807,2.27c6.546,2.152,10.518,6.725,11.523,13.496
	c0.951,6.4-1.474,11.642-6.557,15.632c-1.398,1.099-2.967,1.962-4.688,2.377c-1.331,0.32-1.728,0.964-1.774,2.3
	c-0.195,5.693-0.418,11.373-2.557,16.804c-3.078,7.818-8.104,13.953-15.226,18.392c-0.732,0.457-1.699,0.771-1.688,1.851
	c0.012,1.28,1.259,1.084,1.964,1.354c5.21,1.993,10.133,4.45,14.245,8.31c3.883,3.644,5.947,8.065,5.893,13.463
	c-0.036,3.534,0.118,7.071,0.157,10.607c0.029,2.743-1.171,4.289-3.36,4.408c-2.294,0.126-3.749-1.382-3.861-4.216
	c-0.13-3.291-0.299-6.597-0.144-9.881c0.217-4.559-1.76-7.887-5.267-10.479c-6.402-4.732-13.849-6.917-21.454-8.693
	c-0.853-0.199-1.717-0.346-2.656-0.532c-0.386,3.284,0.089,6.5-0.466,9.69c-1.557,8.947-9.155,15.726-18.241,15.904
	c-6.749,0.134-13.503,0.12-20.253,0.02c-10.352-0.154-18.513-8.257-18.916-18.666c-0.075-1.926-0.038-3.857-0.024-5.786
	c0.005-0.735-0.054-1.24-1.039-1.021c-8.088,1.806-16.055,3.917-22.94,8.842c-3.711,2.654-5.61,6.079-5.551,10.821
	c0.124,9.877-0.612,19.767,0.525,29.627c0.776,6.726,2.087,13.312,5.311,19.362c2.185,4.101,5.12,7.499,9.591,9.947
	c0-2.02,0-3.744,0-5.469c0-10.69-0.013-21.38,0.008-32.07c0.006-3.065,1.881-4.778,4.469-4.107c2.159,0.561,2.771,2.2,2.768,4.233
	c-0.009,8.439-0.004,16.879-0.004,25.318c0,4.099,0.043,8.199-0.026,12.297c-0.021,1.209,0.236,1.646,1.561,1.644
	c22.827-0.042,45.653-0.052,68.48,0.012c1.744,0.005,1.475-0.935,1.474-1.959c-0.002-12.217-0.003-24.435,0.002-36.651
	c0-0.958-0.086-1.922,0.349-2.841c0.79-1.672,2.1-2.381,3.9-2.112c1.721,0.257,2.7,1.334,2.935,3.028
	c0.109,0.79,0.053,1.605,0.054,2.408c0.002,11.963,0.001,23.926,0.001,36.129c2.735-1.139,4.69-2.972,6.421-5.051
	c4.903-5.891,6.823-12.98,7.965-20.343c0.442-2.854,0.644-5.744,0.973-8.615c0.252-2.196,1.846-3.652,3.816-3.523
	c1.903,0.126,3.519,1.667,3.369,3.707c-0.85,11.621-2.601,22.994-9.953,32.64c-3.562,4.672-8.218,7.817-13.72,9.775
	c-0.327,0.115-0.85,0.016-0.862,0.604C275.615,301.115,248.285,301.115,220.955,301.115z M264.217,161.142
	c8.801-0.05,20.071-0.125,31.26,0.89c5.464,0.495,9.673-1.16,13.725-4.265c2.826-2.166,5.197-4.752,7.306-7.622
	c1.057-1.439,1.489-2.904,1.354-4.68c-0.232-3.042-0.532-6.108-0.372-9.141c0.134-2.523-0.93-3.352-3.153-4.059
	c-24.723-7.861-49.93-10.069-75.62-6.614c-10.345,1.392-20.485,3.751-30.39,7.091c-1.18,0.398-1.839,0.825-1.85,2.268
	c-0.028,3.772-0.239,7.545-0.451,11.313c-0.067,1.191,0.271,2.151,0.917,3.127c3.166,4.784,7.286,8.496,12.293,11.272
	c1.941,1.077,3.901,1.58,6.178,1.42C237.516,161.296,249.643,161.133,264.217,161.142z M261.858,205.953
	c11.644-0.111,23.284-0.378,34.918-0.867c1.513-0.063,2.16-0.384,2.425-2.09c1.638-10.563,1.651-21.091,0.013-31.655
	c-0.258-1.66-0.858-2.054-2.375-2.132c-10.75-0.551-21.505-0.816-32.268-0.839c-12.449-0.027-24.893,0.177-37.328,0.827
	c-1.549,0.082-2.296,0.353-2.578,2.201c-1.599,10.487-1.613,20.932,0.007,31.417c0.267,1.728,0.808,2.218,2.506,2.285
	C238.735,205.562,250.294,205.838,261.858,205.953z M262.091,212.857c0,0.027,0,0.056,0,0.083c-4.98,0-9.96-0.029-14.94,0.013
	c-2.222,0.019-5.214-1.072-6.46,0.318c-1.324,1.478-0.428,4.442-0.349,6.747c0.229,6.652,5.309,11.621,11.946,11.688
	c6.588,0.065,13.179,0.081,19.766-0.02c5.428-0.084,9.958-3.963,11.182-9.251c0.589-2.549,0.173-5.129,0.394-7.68
	c0.144-1.665-0.503-1.953-2.019-1.934C275.105,212.906,268.598,212.857,262.091,212.857z M216.707,198.159
	c-0.187-3.09-0.414-5.642-0.483-8.198c-0.178-6.516,0.287-12.992,1.267-19.44c0.135-0.889,0.964-2.134-0.406-2.789
	c-4.045-1.933-7.566-4.622-11.05-7.856c-0.191,6.749-0.038,13.099,0.604,19.391C207.389,186.615,210.737,192.809,216.707,198.159z
	 M318,159.707c-3.311,3.125-6.325,5.656-9.907,7.302c-1.723,0.791-2.055,1.758-1.763,3.51c1.38,8.271,1.777,16.593,1.007,24.958
	c-0.069,0.744-0.01,1.501-0.01,2.394c4.319-3.502,7.741-8.722,9.095-14.334C318.267,175.891,317.652,168.062,318,159.707z
	 M198.666,145.486c-3.88,1.834-5.898,5.121-5.654,9.036c0.221,3.537,2.375,6.514,5.654,7.664
	C198.666,156.64,198.666,151.141,198.666,145.486z M325.151,162.267c3.831-1.501,6.015-5.061,5.73-9.001
	c-0.263-3.636-2.668-6.812-5.73-7.568C325.151,151.149,325.151,156.6,325.151,162.267z"/>
<path fill-rule="evenodd" clip-rule="evenodd" fill="none" stroke="#61884A" stroke-width="3" d="M239.224,88.982
	c0-1.123-0.064-2.251,0.012-3.369c0.244-3.563,3.003-6.469,6.554-6.914c0.952-0.119,1.937-0.226,2.88-0.115
	c2.088,0.245,3.187-0.344,2.774-2.673c-0.124-0.699-0.049-1.444,0.003-2.163c0.317-4.348,3.502-7.392,7.868-7.504
	c1.604-0.041,3.21-0.024,4.815-0.007c5.032,0.056,8.231,3.23,8.346,8.264c0.09,3.931,0.09,3.931,3.986,4.061
	c5.293,0.177,8.208,3.187,8.251,8.532c0.012,1.525,0.031,3.051-0.009,4.575c-0.119,4.667-3.271,7.773-7.933,7.851
	c-4.172,0.069-4.172,0.069-4.297,4.221c-0.141,4.705-3.085,7.829-7.775,8.123c-1.838,0.116-3.696,0.117-5.535-0.002
	c-4.663-0.301-7.616-3.463-7.741-8.156c-0.11-4.144-0.11-4.144-4.094-4.185c-4.94-0.051-8.059-3.162-8.143-8.128
	c-0.014-0.802-0.002-1.605-0.002-2.408C239.199,88.982,239.211,88.982,239.224,88.982z M246.426,88.566c0,3.704,0,3.704,3.25,3.714
	c0.401,0.001,0.802-0.004,1.203,0.009c4.497,0.146,7.641,3.286,7.776,7.78c0.031,1.042,0.049,2.087,0.001,3.128
	c-0.047,1.011,0.365,1.373,1.38,1.484c4.879,0.534,5.098,0.378,5.203-4.396c0.104-4.685,3.193-7.851,7.804-7.998
	c4.617-0.147,4.571-0.146,4.465-4.795c-0.027-1.211-0.279-1.742-1.599-1.669c-1.353,0.074-2.736,0.031-4.076-0.165
	c-3.837-0.561-6.429-3.518-6.578-7.397c-0.043-1.122-0.012-2.246-0.02-3.369c-0.003-0.478,0.049-1.227-0.425-1.261
	c-1.831-0.13-3.746-0.396-5.49,0c-1.347,0.306-0.608,1.954-0.621,2.97c-0.081,6.39-2.878,9.333-9.284,9.192
	C246.911,85.738,245.735,86.297,246.426,88.566z"/>
<path fill-rule="evenodd" clip-rule="evenodd" fill="none" stroke="#61884A" stroke-width="3" d="M264.217,161.142
	c-14.574-0.009-26.701,0.155-38.803,1.002c-2.277,0.16-4.237-0.343-6.178-1.42c-5.007-2.776-9.127-6.488-12.293-11.272
	c-0.646-0.977-0.984-1.936-0.917-3.127c0.212-3.768,0.423-7.541,0.451-11.313c0.011-1.443,0.669-1.87,1.85-2.268
	c9.905-3.34,20.045-5.7,30.39-7.091c25.69-3.456,50.897-1.247,75.62,6.614c2.224,0.707,3.287,1.535,3.153,4.059
	c-0.16,3.033,0.14,6.099,0.372,9.141c0.135,1.775-0.298,3.24-1.354,4.68c-2.108,2.87-4.479,5.456-7.306,7.622
	c-4.052,3.104-8.261,4.76-13.725,4.265C284.288,161.017,273.018,161.091,264.217,161.142z M239.765,149.366
	c-0.071-2.199-0.544-4.286-1.92-6.062c-1.988-2.567-4.826-2.584-6.902-0.085c-2.582,3.107-2.578,9.223,0.008,12.334
	c2.082,2.505,4.875,2.474,6.891-0.115C239.223,153.664,239.691,151.577,239.765,149.366z M294.872,149.294
	c0.024-2.165-0.458-4.242-1.866-6.011c-2.027-2.549-4.875-2.554-6.905-0.044c-2.615,3.232-2.595,9.156,0.043,12.333
	c2.006,2.417,4.739,2.45,6.747,0.042C294.397,153.806,294.9,151.654,294.872,149.294z"/>
<path fill-rule="evenodd" clip-rule="evenodd" fill="none" stroke="#61884A" stroke-width="3" d="M261.857,205.952
	c-11.563-0.114-23.123-0.391-34.679-0.853c-1.699-0.067-2.239-0.558-2.506-2.285c-1.621-10.484-1.606-20.93-0.007-31.417
	c0.282-1.848,1.028-2.119,2.578-2.201c12.436-0.65,24.879-0.854,37.328-0.827c10.763,0.023,21.518,0.288,32.268,0.839
	c1.517,0.078,2.117,0.472,2.375,2.132c1.639,10.564,1.625,21.092-0.013,31.655c-0.265,1.706-0.912,2.026-2.425,2.09
	C285.142,205.575,273.502,205.842,261.857,205.952z"/>
<path fill-rule="evenodd" clip-rule="evenodd" fill="none" stroke="#61884A" stroke-width="3" d="M262.091,212.857
	c6.506,0,13.014,0.049,19.52-0.035c1.516-0.02,2.163,0.269,2.019,1.934c-0.221,2.551,0.196,5.131-0.394,7.68
	c-1.225,5.288-5.754,9.167-11.182,9.251c-6.587,0.101-13.178,0.085-19.766,0.02c-6.637-0.066-11.717-5.035-11.946-11.688
	c-0.08-2.305-0.975-5.27,0.349-6.747c1.246-1.391,4.238-0.3,6.46-0.318c4.98-0.042,9.96-0.013,14.94-0.013
	C262.091,212.913,262.091,212.885,262.091,212.857z"/>
<path fill-rule="evenodd" clip-rule="evenodd" fill="none" stroke="#61884A" stroke-width="3" d="M216.707,198.159
	c-5.97-5.351-9.318-11.544-10.068-18.894c-0.642-6.292-0.795-12.642-0.604-19.391c3.484,3.234,7.004,5.924,11.05,7.856
	c1.37,0.655,0.541,1.9,0.406,2.789c-0.98,6.449-1.444,12.925-1.267,19.44C216.293,192.518,216.52,195.069,216.707,198.159z"/>
<path fill-rule="evenodd" clip-rule="evenodd" fill="none" stroke="#61884A" stroke-width="3" d="M318,159.707
	c-0.348,8.355,0.267,16.184-1.578,23.83c-1.354,5.612-4.775,10.832-9.095,14.334c0-0.893-0.06-1.649,0.01-2.394
	c0.771-8.365,0.373-16.688-1.007-24.958c-0.292-1.751,0.04-2.719,1.763-3.51C311.675,165.363,314.689,162.832,318,159.707z"/>
<path fill-rule="evenodd" clip-rule="evenodd" fill="none" stroke="#61884A" stroke-width="3" d="M198.666,145.486
	c0,5.655,0,11.154,0,16.7c-3.278-1.15-5.433-4.127-5.654-7.664C192.768,150.607,194.786,147.32,198.666,145.486z"/>
<path fill-rule="evenodd" clip-rule="evenodd" fill="none" stroke="#61884A" stroke-width="3" d="M325.151,162.267
	c0-5.667,0-11.118,0-16.569c3.063,0.756,5.468,3.932,5.73,7.568C331.166,157.206,328.982,160.766,325.151,162.267z"/>
<path fill-rule="evenodd" clip-rule="evenodd" fill="none" stroke="#61884A" stroke-width="3" d="M246.426,88.566
	c-0.69-2.269,0.485-2.829,2.991-2.773c6.406,0.141,9.203-2.803,9.284-9.192c0.013-1.017-0.726-2.665,0.621-2.97
	c1.744-0.396,3.659-0.13,5.49,0c0.474,0.034,0.422,0.783,0.425,1.261c0.008,1.123-0.023,2.248,0.02,3.369
	c0.149,3.879,2.741,6.836,6.578,7.397c1.34,0.196,2.723,0.239,4.076,0.165c1.319-0.073,1.571,0.458,1.599,1.669
	c0.106,4.649,0.152,4.648-4.465,4.795c-4.611,0.147-7.7,3.313-7.804,7.998c-0.105,4.774-0.324,4.93-5.203,4.396
	c-1.016-0.111-1.427-0.473-1.38-1.484c0.048-1.041,0.03-2.086-0.001-3.128c-0.135-4.494-3.28-7.633-7.776-7.78
	c-0.401-0.013-0.802-0.007-1.203-0.009C246.426,92.271,246.426,92.271,246.426,88.566z"/>
<path fill-rule="evenodd" clip-rule="evenodd" fill="none" stroke="#61884A" stroke-width="3" d="M239.765,149.366
	c-0.073,2.21-0.542,4.297-1.923,6.072c-2.016,2.589-4.809,2.621-6.891,0.115c-2.586-3.111-2.59-9.227-0.008-12.334
	c2.076-2.499,4.914-2.481,6.902,0.085C239.221,145.08,239.694,147.167,239.765,149.366z"/>
<path fill-rule="evenodd" clip-rule="evenodd" fill="none" stroke="#61884A" stroke-width="3" d="M294.872,149.294
	c0.028,2.36-0.475,4.512-1.981,6.319c-2.008,2.409-4.741,2.375-6.747-0.042c-2.638-3.177-2.658-9.101-0.043-12.333
	c2.03-2.509,4.878-2.504,6.905,0.044C294.414,145.052,294.896,147.129,294.872,149.294z"/>
</svg>
