<?xml version="1.0" encoding="utf-8"?>
<!-- Generator: Adobe Illustrator 16.0.3, SVG Export Plug-In . SVG Version: 6.00 Build 0)  -->
<!DOCTYPE svg PUBLIC "-//W3C//DTD SVG 1.1//EN" "http://www.w3.org/Graphics/SVG/1.1/DTD/svg11.dtd">
<svg version="1.1" id="Capa_1" xmlns="http://www.w3.org/2000/svg" xmlns:xlink="http://www.w3.org/1999/xlink" x="0px" y="0px"
	 width="566.93px" height="354.33px" viewBox="0 0 566.93 354.33" enable-background="new 0 0 566.93 354.33" xml:space="preserve">
<path fill-rule="evenodd" clip-rule="evenodd" fill="none" stroke="#61884A" stroke-width="3" stroke-miterlimit="10" d="
	M276.41,70.813c8.038,0,16.077,0,24.115,0c5.738,1.504,9.702,5.037,11.516,10.663c0.596,1.845,1.54,2.609,3.255,3.239
	c20.688,7.595,32.684,22.323,35.887,44.143c0.206,1.407,0.662,2.173,2.026,2.837c7.775,3.785,10.606,13.561,5.644,20.635
	c-1.868,2.663-1.897,4.094-0.256,6.955c7.431,12.949-1.467,28.113-16.595,28.675c-1.551,0.058-2.16,0.485-2.616,1.988
	c-2.167,7.146-5.869,13.458-10.535,19.284c-1.967,2.455-5.486,3.823-6.028,7.139c-0.513,3.13-0.11,6.409-0.11,9.623
	c0,0.16,0.022,0.325-0.004,0.481c-0.213,1.271,0.325,1.617,1.58,1.594c4.176-0.075,8.354-0.057,12.532-0.022
	c8.469,0.07,16.608,1.726,24.017,5.905c19.255,10.864,29.027,27.476,29.372,49.56c0.145,9.237-0.046,18.479,0.063,27.718
	c0.037,3.104-0.894,5.363-3.897,6.52c-65.271,0-130.542,0-195.813,0c-2.729-2.077-2.985-4.948-2.939-8.119
	c0.129-8.919,0.043-17.841,0.045-26.762c0.002-9.155,2.007-17.863,6.416-25.878c8.397-15.267,20.93-25.064,38.309-28.195
	c6.938-1.25,13.948-0.632,20.928-0.719c1.378-0.018,1.987-0.188,1.912-1.792c-0.148-3.127-0.092-6.268-0.018-9.4
	c0.027-1.141-0.314-1.931-1.158-2.7c-7.264-6.627-12.479-14.597-15.397-24.003c-0.499-1.609-1.198-2.173-2.975-2.245
	c-7.979-0.325-13.995-4.053-17.293-11.37c-3.078-6.828-2.255-13.479,2.297-19.502c0.883-1.169,0.725-1.753-0.207-2.774
	c-6.541-7.168-4.443-18.34,4.228-22.561c1.215-0.591,1.799-1.263,1.986-2.629c2.843-20.754,13.948-35.296,33.242-43.357
	c3.341-1.396,6.15-2.622,6.829-6.506c0.078-0.445,0.457-0.838,0.69-1.257C269.465,74.372,272.839,72.469,276.41,70.813z
	 M289.105,159.073c-13.575,0-27.151,0.054-40.725-0.055c-2.206-0.018-3.092,0.32-2.899,2.773c0.256,3.273,0.105,6.583,0.056,9.875
	c-0.187,12.424,3.708,23.385,12.139,32.516c10.371,11.232,23.281,16.149,38.427,13.526c17.755-3.075,31.954-17.691,35.364-35.432
	c1.349-7.018,0.664-14.093,0.927-21.142c0.063-1.682-0.372-2.116-2.08-2.106C316.578,159.107,302.842,159.073,289.105,159.073z
	 M226.252,274.12c0,8.761-0.009,17.521,0.005,26.28c0.004,2.479-0.9,5.917,0.359,7.194c1.582,1.605,4.996,0.341,7.613,0.506
	c0.08,0.005,0.163-0.011,0.241,0.002c1.192,0.2,1.477-0.35,1.451-1.476c-0.07-3.052-0.079-6.108-0.008-9.16
	c0.073-3.111,2.106-5.258,4.819-5.251c2.712,0.007,4.721,2.155,4.797,5.273c0.068,2.812,0.141,5.633-0.03,8.436
	c-0.11,1.813,0.415,2.238,2.218,2.224c11.411-0.093,22.824-0.093,34.235,0c1.801,0.015,2.233-0.417,2.221-2.22
	c-0.087-12.938-0.066-25.878-0.018-38.816c0.006-1.394-0.39-2.386-1.359-3.387c-5.976-6.183-11.883-12.433-17.822-18.65
	c-2.33-2.438-4.282-5.785-7.14-7.019c-2.852-1.23-6.622-0.334-9.99-0.369c-0.16-0.002-0.326,0.024-0.481-0.004
	c-1.478-0.269-1.871,0.304-1.858,1.809c0.078,9.001,0.044,18.002,0.03,27.003c-0.001,0.878-0.016,1.78-0.212,2.628
	c-0.522,2.252-2.526,3.796-4.701,3.741c-2.103-0.053-3.983-1.544-4.494-3.697c-0.201-0.846-0.221-1.749-0.223-2.626
	c-0.015-8.841-0.069-17.682,0.039-26.521c0.023-1.909-0.61-2.142-2.185-1.702c-1.85,0.517-3.718,0.977-5.596,1.373
	c-1.471,0.311-1.973,1.004-1.959,2.604C226.296,252.903,226.252,263.513,226.252,274.12z M342.003,238.091c0,0.853,0,1.643,0,2.433
	c0,8.68,0.007,17.359-0.009,26.039c-0.002,0.876-0.026,1.779-0.23,2.625c-0.521,2.156-2.402,3.637-4.508,3.677
	c-2.18,0.042-4.173-1.506-4.688-3.761c-0.193-0.849-0.203-1.751-0.204-2.629c-0.014-8.921-0.061-17.843,0.037-26.762
	c0.02-1.736-0.474-2.147-2.128-2.065c-2.886,0.143-5.785,0.09-8.677,0.015c-1.134-0.029-1.938,0.291-2.724,1.123
	c-8.01,8.462-16.047,16.899-24.107,25.313c-0.727,0.759-1.014,1.515-1.012,2.554c0.029,13.26,0.042,26.521-0.013,39.781
	c-0.006,1.396,0.418,1.703,1.745,1.697c11.734-0.05,23.468-0.054,35.201,0.004c1.396,0.007,1.736-0.414,1.699-1.747
	c-0.09-3.131-0.121-6.271,0.018-9.399c0.122-2.794,2.244-4.777,4.785-4.771s4.567,1.996,4.784,4.791
	c0.092,1.198-0.021,2.412,0.039,3.614c0.123,2.457-1.062,5.745,0.484,7.128c1.353,1.208,4.592,0.192,6.979,0.393
	c1.824,0.153,2.228-0.425,2.218-2.218c-0.08-15.108-0.045-30.218-0.045-45.326c0-6.188,0.009-12.377-0.012-18.564
	c-0.003-0.8,0.316-1.653-1.007-2.047C347.858,239.16,345.103,238.357,342.003,238.091z M313.065,94.243c0,0.986,0,1.775,0,2.565
	c0,5.787,0.006,11.574-0.002,17.361c-0.005,3.933-1.762,6.243-4.759,6.291c-3.07,0.049-4.881-2.316-4.885-6.405
	c-0.006-5.144-0.001-10.288-0.001-15.432c0-3.697,0.04-7.395-0.011-11.091c-0.066-4.743-2.427-7.072-7.062-7.072
	c-5.305,0-10.611,0.071-15.914-0.034c-2.215-0.044-3.631,0.952-4.742,2.681c-0.996,1.548-1.223,3.264-1.219,5.064
	c0.02,9.002,0.042,18.004-0.011,27.006c-0.018,3.121-2.07,5.269-4.783,5.283c-2.714,0.014-4.79-2.131-4.823-5.242
	c-0.066-6.188-0.021-12.377-0.021-18.566c0-0.76,0-1.519,0-2.173c-0.356-0.115-0.44-0.173-0.506-0.158
	c-0.234,0.056-0.471,0.117-0.691,0.211c-14.638,6.235-23.768,17.003-26.892,32.705c-0.576,2.896-0.563,2.899,2.371,2.899
	c33.275,0,66.55,0,99.825,0c0.866,0,1.733,0,2.613,0C340.472,114.691,328.12,99.064,313.065,94.243z M288.927,139.782
	c-18.954,0-37.909-0.008-56.863,0.007c-3.49,0.003-5.761,1.926-5.781,4.777c-0.021,2.873,2.236,4.795,5.706,4.859
	c0.321,0.006,0.643,0.001,0.964,0.001c37.347,0,74.694,0,112.041-0.002c0.723,0,1.452,0.035,2.165-0.054
	c2.501-0.314,4.372-2.273,4.459-4.608c0.09-2.409-1.795-4.554-4.385-4.912c-0.79-0.109-1.604-0.065-2.405-0.065
	C326.193,139.781,307.561,139.782,288.927,139.782z M216.605,245.624c-10.727,7.658-17.827,19.733-18.938,32.357
	c-0.846,9.615-0.16,19.27-0.377,28.903c-0.033,1.478,0.858,1.216,1.707,1.216c5.141,0.002,10.285-0.084,15.422,0.048
	c1.782,0.045,2.24-0.383,2.233-2.207c-0.076-19.441-0.047-38.881-0.047-58.322C216.605,247.08,216.605,246.541,216.605,245.624z
	 M361.602,245.656c-0.188,0.466-0.289,0.601-0.289,0.734c-0.011,20.083,0.005,40.166-0.056,60.248
	c-0.004,1.469,0.647,1.481,1.716,1.476c5.222-0.028,10.444-0.072,15.664,0.024c1.543,0.028,2.008-0.347,1.989-1.953
	c-0.09-7.791,0.079-15.586-0.066-23.375C380.271,267.468,373.824,255.204,361.602,245.656z M264.834,221.975
	c0,2.844,0.052,5.324-0.025,7.801c-0.032,1.011,0.446,1.627,1.073,2.282c7.263,7.605,14.529,15.207,21.743,22.859
	c0.958,1.016,1.461,1.283,2.576,0.095c7.246-7.73,14.584-15.376,21.892-23.049c0.495-0.52,1.003-0.98,0.988-1.826
	c-0.044-2.611-0.017-5.225-0.017-8.143C296.943,229.944,281.062,229.991,264.834,221.975z M236.016,168.71c-0.039,0-0.077,0-0.116,0
	c0-2.722-0.085-5.447,0.035-8.164c0.064-1.443-0.519-1.553-1.675-1.347c-4.606,0.818-8.086,5.015-7.997,9.709
	c0.088,4.601,3.649,8.67,8.136,9.353c1.154,0.175,1.734,0.069,1.658-1.391C235.915,174.157,236.016,171.431,236.016,168.71z
	 M342,168.811c-0.04,0-0.08,0-0.121,0c0,2.721,0.086,5.446-0.036,8.162c-0.06,1.319,0.445,1.443,1.521,1.309
	c4.525-0.566,8.23-4.782,8.273-9.473c0.042-4.703-3.521-8.888-8.095-9.638c-1.343-0.22-1.603,0.254-1.567,1.477
	C342.054,163.366,342,166.09,342,168.811z"/>
<path fill-rule="evenodd" clip-rule="evenodd" fill="none" stroke="#61884A" stroke-width="3" stroke-miterlimit="10" d="
	M289.105,159.073c13.736,0,27.473,0.034,41.208-0.043c1.708-0.009,2.143,0.424,2.08,2.106c-0.263,7.049,0.422,14.125-0.927,21.142
	c-3.41,17.74-17.609,32.356-35.364,35.432c-15.146,2.623-28.056-2.294-38.427-13.526c-8.43-9.131-12.326-20.092-12.139-32.516
	c0.05-3.293,0.201-6.602-0.056-9.875c-0.192-2.454,0.694-2.792,2.899-2.773C261.955,159.127,275.531,159.073,289.105,159.073z"/>
<path fill-rule="evenodd" clip-rule="evenodd" fill="none" stroke="#61884A" stroke-width="3" stroke-miterlimit="10" d="
	M226.252,274.12c0-10.607,0.044-21.217-0.048-31.824c-0.014-1.601,0.489-2.294,1.959-2.604c1.878-0.396,3.747-0.856,5.596-1.373
	c1.575-0.439,2.208-0.207,2.185,1.702c-0.108,8.839-0.054,17.68-0.039,26.521c0.002,0.877,0.022,1.78,0.223,2.626
	c0.511,2.153,2.391,3.645,4.494,3.697c2.174,0.055,4.178-1.489,4.701-3.741c0.197-0.848,0.211-1.75,0.212-2.628
	c0.014-9.001,0.048-18.002-0.03-27.003c-0.013-1.505,0.38-2.077,1.858-1.809c0.155,0.028,0.321,0.002,0.481,0.004
	c3.368,0.035,7.138-0.861,9.99,0.369c2.858,1.233,4.81,4.58,7.14,7.019c5.939,6.218,11.846,12.468,17.822,18.65
	c0.969,1.001,1.365,1.993,1.359,3.387c-0.049,12.938-0.069,25.878,0.018,38.816c0.013,1.803-0.419,2.234-2.221,2.22
	c-11.411-0.093-22.824-0.093-34.235,0c-1.804,0.015-2.329-0.41-2.218-2.224c0.17-2.803,0.098-5.624,0.03-8.436
	c-0.076-3.118-2.085-5.267-4.797-5.273c-2.713-0.007-4.746,2.14-4.819,5.251c-0.071,3.052-0.063,6.108,0.008,9.16
	c0.026,1.126-0.258,1.676-1.451,1.476c-0.078-0.013-0.161,0.003-0.241-0.002c-2.617-0.165-6.031,1.1-7.613-0.506
	c-1.259-1.277-0.355-4.716-0.359-7.194C226.244,291.641,226.252,282.881,226.252,274.12z M245.52,282.533
	c-0.004-2.514-2.229-4.76-4.746-4.792c-2.509-0.033-4.782,2.162-4.853,4.687c-0.073,2.598,2.262,4.955,4.866,4.912
	C243.306,287.299,245.524,285.046,245.52,282.533z"/>
<path fill-rule="evenodd" clip-rule="evenodd" fill="none" stroke="#61884A" stroke-width="3" stroke-miterlimit="10" d="
	M342.003,238.091c3.1,0.267,5.855,1.069,8.627,1.896c1.323,0.394,1.004,1.247,1.007,2.047c0.021,6.188,0.012,12.376,0.012,18.564
	c0,15.108-0.035,30.218,0.045,45.326c0.01,1.793-0.394,2.371-2.218,2.218c-2.387-0.2-5.626,0.815-6.979-0.393
	c-1.546-1.383-0.361-4.671-0.484-7.128c-0.06-1.202,0.053-2.416-0.039-3.614c-0.217-2.795-2.243-4.785-4.784-4.791
	s-4.663,1.978-4.785,4.771c-0.139,3.128-0.107,6.269-0.018,9.399c0.037,1.333-0.304,1.754-1.699,1.747
	c-11.733-0.058-23.467-0.054-35.201-0.004c-1.327,0.006-1.751-0.302-1.745-1.697c0.055-13.261,0.042-26.521,0.013-39.781
	c-0.002-1.039,0.285-1.795,1.012-2.554c8.061-8.413,16.098-16.851,24.107-25.313c0.786-0.832,1.59-1.152,2.724-1.123
	c2.892,0.075,5.791,0.128,8.677-0.015c1.654-0.082,2.147,0.329,2.128,2.065c-0.098,8.919-0.051,17.841-0.037,26.762
	c0.001,0.878,0.011,1.78,0.204,2.629c0.515,2.255,2.508,3.803,4.688,3.761c2.105-0.04,3.987-1.521,4.508-3.677
	c0.204-0.846,0.229-1.749,0.23-2.625c0.016-8.68,0.009-17.359,0.009-26.039C342.003,239.733,342.003,238.943,342.003,238.091z
	 M337.097,287.34c2.502,0.053,4.792-2.132,4.883-4.656c0.089-2.491-2.073-4.815-4.597-4.941c-2.578-0.129-4.987,2.17-5.003,4.775
	C332.365,285.025,334.577,287.287,337.097,287.34z"/>
<path fill-rule="evenodd" clip-rule="evenodd" fill="none" stroke="#61884A" stroke-width="3" stroke-miterlimit="10" d="
	M313.065,94.243c15.055,4.821,27.406,20.448,28.489,35.892c-0.88,0-1.747,0-2.613,0c-33.275,0-66.55,0-99.825,0
	c-2.933,0-2.947-0.003-2.371-2.899c3.124-15.701,12.253-26.47,26.892-32.705c0.221-0.094,0.458-0.155,0.691-0.211
	c0.066-0.015,0.15,0.042,0.506,0.158c0,0.655,0,1.414,0,2.173c0,6.189-0.046,12.378,0.021,18.566
	c0.033,3.111,2.109,5.256,4.823,5.242c2.713-0.014,4.765-2.163,4.783-5.283c0.053-9.002,0.03-18.004,0.011-27.006
	c-0.004-1.801,0.223-3.516,1.219-5.064c1.11-1.729,2.527-2.725,4.742-2.681c5.302,0.105,10.609,0.034,15.914,0.034
	c4.635,0,6.995,2.329,7.062,7.072c0.051,3.696,0.011,7.395,0.011,11.091c0,5.144-0.005,10.289,0.001,15.432
	c0.004,4.088,1.814,6.454,4.885,6.405c2.997-0.047,4.754-2.358,4.759-6.291c0.008-5.787,0.002-11.574,0.002-17.361
	C313.065,96.018,313.065,95.229,313.065,94.243z"/>
<path fill-rule="evenodd" clip-rule="evenodd" fill="none" stroke="#61884A" stroke-width="3" stroke-miterlimit="10" d="
	M288.927,139.782c18.634,0,37.267-0.001,55.9,0.002c0.802,0,1.615-0.044,2.405,0.065c2.59,0.358,4.475,2.503,4.385,4.912
	c-0.087,2.334-1.958,4.294-4.459,4.608c-0.713,0.089-1.442,0.054-2.165,0.054c-37.347,0.002-74.694,0.002-112.041,0.002
	c-0.321,0-0.643,0.005-0.964-0.001c-3.47-0.063-5.727-1.986-5.706-4.859c0.02-2.851,2.292-4.774,5.781-4.777
	C251.018,139.773,269.973,139.782,288.927,139.782z"/>
<path fill-rule="evenodd" clip-rule="evenodd" fill="none" stroke="#61884A" stroke-width="3" stroke-miterlimit="10" d="
	M216.605,245.624c0,0.917,0,1.456,0,1.995c0,19.441-0.029,38.881,0.047,58.322c0.007,1.824-0.451,2.252-2.233,2.207
	c-5.138-0.132-10.281-0.046-15.422-0.048c-0.849,0-1.74,0.262-1.707-1.216c0.217-9.634-0.468-19.288,0.377-28.903
	C198.778,265.357,205.878,253.282,216.605,245.624z"/>
<path fill-rule="evenodd" clip-rule="evenodd" fill="none" stroke="#61884A" stroke-width="3" stroke-miterlimit="10" d="
	M361.602,245.656c12.223,9.548,18.67,21.812,18.958,37.154c0.146,7.789-0.023,15.584,0.066,23.375
	c0.019,1.606-0.446,1.981-1.989,1.953c-5.22-0.097-10.442-0.053-15.664-0.024c-1.068,0.006-1.72-0.007-1.716-1.476
	c0.061-20.082,0.045-40.165,0.056-60.248C361.313,246.257,361.414,246.122,361.602,245.656z"/>
<path fill-rule="evenodd" clip-rule="evenodd" fill="none" stroke="#61884A" stroke-width="3" stroke-miterlimit="10" d="
	M264.834,221.975c16.228,8.017,32.109,7.97,48.23,0.02c0,2.918-0.027,5.531,0.017,8.143c0.015,0.846-0.493,1.307-0.988,1.826
	c-7.308,7.673-14.646,15.318-21.892,23.049c-1.115,1.188-1.618,0.921-2.576-0.095c-7.213-7.652-14.48-15.254-21.743-22.859
	c-0.626-0.655-1.104-1.271-1.073-2.282C264.886,227.299,264.834,224.818,264.834,221.975z"/>
<path fill-rule="evenodd" clip-rule="evenodd" fill="none" stroke="#61884A" stroke-width="3" stroke-miterlimit="10" d="
	M236.016,168.71c0,2.721-0.101,5.447,0.041,8.161c0.076,1.46-0.504,1.565-1.658,1.391c-4.486-0.683-8.047-4.752-8.136-9.353
	c-0.09-4.694,3.39-8.892,7.997-9.709c1.156-0.206,1.739-0.096,1.675,1.347c-0.12,2.716-0.035,5.442-0.035,8.164
	C235.938,168.71,235.977,168.71,236.016,168.71z"/>
<path fill-rule="evenodd" clip-rule="evenodd" fill="none" stroke="#61884A" stroke-width="3" stroke-miterlimit="10" d="
	M342,168.811c0-2.721,0.054-5.445-0.024-8.164c-0.035-1.223,0.225-1.697,1.567-1.477c4.574,0.75,8.137,4.936,8.095,9.638
	c-0.043,4.691-3.748,8.907-8.273,9.473c-1.076,0.135-1.581,0.011-1.521-1.309c0.122-2.715,0.036-5.44,0.036-8.162
	C341.92,168.811,341.96,168.811,342,168.811z"/>
<path fill-rule="evenodd" clip-rule="evenodd" fill="none" stroke="#61884A" stroke-width="3" stroke-miterlimit="10" d="
	M245.52,282.533c0.004,2.513-2.214,4.766-4.733,4.807c-2.604,0.043-4.939-2.314-4.866-4.912c0.071-2.524,2.344-4.72,4.853-4.687
	C243.292,277.773,245.516,280.02,245.52,282.533z"/>
<path fill-rule="evenodd" clip-rule="evenodd" fill="none" stroke="#61884A" stroke-width="3" stroke-miterlimit="10" d="
	M337.097,287.34c-2.52-0.053-4.731-2.314-4.717-4.822c0.016-2.605,2.425-4.904,5.003-4.775c2.523,0.126,4.686,2.45,4.597,4.941
	C341.889,285.208,339.599,287.393,337.097,287.34z"/>
<path fill-rule="evenodd" clip-rule="evenodd" fill="none" stroke="#61884A" stroke-width="3" d="M266.826,174.276
	c-0.073,2.21-0.542,4.298-1.923,6.071c-2.016,2.59-4.809,2.621-6.891,0.115c-2.586-3.111-2.59-9.226-0.008-12.333
	c2.076-2.499,4.914-2.481,6.902,0.085C266.282,169.99,266.755,172.078,266.826,174.276z"/>
<path fill-rule="evenodd" clip-rule="evenodd" fill="none" stroke="#61884A" stroke-width="3" d="M321.934,174.204
	c0.027,2.36-0.475,4.513-1.982,6.319c-2.008,2.408-4.74,2.375-6.746-0.042c-2.639-3.177-2.658-9.101-0.043-12.333
	c2.029-2.509,4.877-2.504,6.904,0.044C321.475,169.962,321.957,172.04,321.934,174.204z"/>
</svg>
