<svg width="848" height="124" viewBox="0 0 848 124" fill="none" xmlns="http://www.w3.org/2000/svg">
<path d="M177 106H168.264L133.128 52.72V106H124.392V38.992H133.128L168.264 92.176V38.992H177V106ZM240.468 53.392V106H231.732V98.224C230.068 100.912 227.732 103.024 224.724 104.56C221.78 106.032 218.516 106.768 214.932 106.768C210.836 106.768 207.156 105.936 203.892 104.272C200.628 102.544 198.036 99.984 196.116 96.592C194.26 93.2 193.332 89.072 193.332 84.208V53.392H201.972V83.056C201.972 88.24 203.284 92.24 205.908 95.056C208.532 97.808 212.116 99.184 216.66 99.184C221.332 99.184 225.012 97.744 227.7 94.864C230.388 91.984 231.732 87.792 231.732 82.288V53.392H240.468ZM267.794 60.592V91.6C267.794 94.16 268.338 95.984 269.426 97.072C270.514 98.096 272.402 98.608 275.09 98.608H281.522V106H273.65C268.786 106 265.138 104.88 262.706 102.64C260.274 100.4 259.058 96.72 259.058 91.6V60.592H252.242V53.392H259.058V40.144H267.794V53.392H281.522V60.592H267.794ZM302.763 61.936C304.299 58.928 306.475 56.592 309.291 54.928C312.171 53.264 315.659 52.432 319.755 52.432V61.456H317.451C307.659 61.456 302.763 66.768 302.763 77.392V106H294.027V53.392H302.763V61.936ZM336.271 44.848C334.607 44.848 333.199 44.272 332.047 43.12C330.895 41.968 330.319 40.56 330.319 38.896C330.319 37.232 330.895 35.824 332.047 34.672C333.199 33.52 334.607 32.944 336.271 32.944C337.871 32.944 339.215 33.52 340.303 34.672C341.455 35.824 342.031 37.232 342.031 38.896C342.031 40.56 341.455 41.968 340.303 43.12C339.215 44.272 337.871 44.848 336.271 44.848ZM340.495 53.392V106H331.759V53.392H340.495ZM367.961 60.592V91.6C367.961 94.16 368.505 95.984 369.593 97.072C370.681 98.096 372.569 98.608 375.257 98.608H381.689V106H373.817C368.953 106 365.305 104.88 362.873 102.64C360.441 100.4 359.225 96.72 359.225 91.6V60.592H352.409V53.392H359.225V40.144H367.961V53.392H381.689V60.592H367.961ZM442.193 77.68C442.193 79.344 442.097 81.104 441.905 82.96H399.857C400.177 88.144 401.937 92.208 405.137 95.152C408.401 98.032 412.337 99.472 416.945 99.472C420.721 99.472 423.857 98.608 426.353 96.88C428.913 95.088 430.705 92.72 431.729 89.776H441.137C439.729 94.832 436.913 98.96 432.689 102.16C428.465 105.296 423.217 106.864 416.945 106.864C411.953 106.864 407.473 105.744 403.505 103.504C399.601 101.264 396.529 98.096 394.289 94C392.049 89.84 390.929 85.04 390.929 79.6C390.929 74.16 392.017 69.392 394.193 65.296C396.369 61.2 399.409 58.064 403.313 55.888C407.281 53.648 411.825 52.528 416.945 52.528C421.937 52.528 426.353 53.616 430.193 55.792C434.033 57.968 436.977 60.976 439.025 64.816C441.137 68.592 442.193 72.88 442.193 77.68ZM433.169 75.856C433.169 72.528 432.433 69.68 430.961 67.312C429.489 64.88 427.473 63.056 424.913 61.84C422.417 60.56 419.633 59.92 416.561 59.92C412.145 59.92 408.369 61.328 405.233 64.144C402.161 66.96 400.401 70.864 399.953 75.856H433.169ZM452.381 79.6C452.381 74.16 453.469 69.424 455.645 65.392C457.821 61.296 460.829 58.128 464.669 55.888C468.573 53.648 473.021 52.528 478.013 52.528C484.477 52.528 489.789 54.096 493.949 57.232C498.173 60.368 500.957 64.72 502.301 70.288H492.893C491.997 67.088 490.237 64.56 487.613 62.704C485.053 60.848 481.853 59.92 478.013 59.92C473.021 59.92 468.989 61.648 465.917 65.104C462.845 68.496 461.309 73.328 461.309 79.6C461.309 85.936 462.845 90.832 465.917 94.288C468.989 97.744 473.021 99.472 478.013 99.472C481.853 99.472 485.053 98.576 487.613 96.784C490.173 94.992 491.933 92.432 492.893 89.104H502.301C500.893 94.48 498.077 98.8 493.853 102.064C489.629 105.264 484.349 106.864 478.013 106.864C473.021 106.864 468.573 105.744 464.669 103.504C460.829 101.264 457.821 98.096 455.645 94C453.469 89.904 452.381 85.104 452.381 79.6Z" fill="#3F6328"/>
<path fill-rule="evenodd" clip-rule="evenodd" d="M49.0399 22.7385C47.3712 23.5084 46.1165 24.6449 45.8784 26.4876C44.485 26.5683 43.1984 26.401 42.072 26.7508C37.8026 28.0781 33.5701 29.5313 29.3639 31.049C28.7162 31.2827 28.029 32.0067 27.7825 32.6633C25.7853 37.9806 22.8648 43.0542 23.3444 49.0049C18.7067 50.6019 18.7363 54.1446 20.9513 56.9623C23.0874 59.679 25.3136 62.325 27.5327 64.9749C27.9763 65.5046 28.3865 65.8249 28.0691 66.7051C26.6892 70.5313 27.7971 74.2862 30.8247 76.5404C33.91 78.838 37.7344 78.7532 41.1523 76.3355C41.4416 76.1309 41.8518 75.9058 42.1633 75.9557C45.1649 76.4374 48.1576 76.9754 51.2497 77.5146C50.6433 79.2043 50.0032 81.2524 49.1816 83.2251C46.8927 88.7205 44.5734 94.2042 42.1794 99.6542C40.3301 103.865 43.0637 109.01 47.512 109.378C48.0912 109.426 48.8615 108.978 49.2685 108.517C49.4732 108.285 49.1927 107.403 48.8853 107.006C48.6349 106.682 48.0267 106.615 47.5632 106.483C44.8826 105.72 43.702 103.059 44.9602 100.581C45.2697 99.972 45.6474 99.3915 45.8975 98.7595C48.6648 91.7713 51.4066 84.7734 54.178 77.7869C54.4067 77.2105 54.8002 76.7001 55.2078 76.0047C56.6141 79.5055 57.9031 82.6061 59.0866 85.747C59.3314 86.3968 59.4283 87.2961 59.1776 87.9096C57.0519 93.1039 54.8333 98.2606 52.6332 103.424C52.2294 104.372 51.8361 105.349 53.0826 105.92C54.2108 106.437 54.8058 105.66 55.223 104.754C56.2452 102.536 57.2791 100.323 58.2413 98.08C59.3305 95.5397 60.3462 92.9677 61.3962 90.4044C63.1785 92.7622 64.9026 95.0431 66.7663 97.5092C66.6079 97.8177 66.2963 98.4179 65.9906 99.0205C63.8696 103.202 61.7353 107.376 59.6368 111.569C58.6649 113.511 58.5777 115.537 59.4719 117.52C60.6437 120.119 62.7352 121.527 65.5579 121.607C68.5246 121.69 70.6574 120.226 72.0107 117.601C74.8313 112.132 77.6431 106.658 80.4821 101.198C80.7173 100.747 81.0516 100.214 81.4774 100.017C83.7144 98.9826 85.9954 98.0437 88.3431 97.0372C88.3507 97.0513 88.4956 97.2485 88.5729 97.4698C90.7965 103.83 93.0719 110.171 95.2053 116.561C96.2594 119.718 98.9529 121.795 102.238 121.626C105.391 121.464 108.162 119.13 108.534 115.914C108.712 114.377 108.479 112.658 107.953 111.194C104.608 101.867 101.128 92.5879 97.6991 83.2909C97.4821 82.7027 97.1597 82.0913 97.1644 81.4931C97.218 74.6801 94.3421 69.5181 88.5794 65.9449C87.7917 65.4565 87.0196 64.9393 86.2109 64.4882C84.7319 63.6632 83.2316 62.8774 81.6651 62.035C83.6403 59.3497 85.603 56.8061 87.4304 54.1681C90.4041 49.8757 93.4112 45.5978 96.1765 41.1711C98.6908 37.1458 96.604 32.0384 92.1856 30.8148C91.1959 30.5407 90.2475 30.5169 89.9029 31.6771C89.56 32.8321 90.333 33.3 91.3394 33.6111C94.0888 34.4614 95.3329 37.2923 93.7163 39.6686C89.0221 46.5696 84.1598 53.3565 79.3402 60.1715C79.1566 60.4307 78.6679 60.726 78.4293 60.6526C76.5433 60.0717 74.6837 59.4058 72.837 58.7733C73.858 54.0618 73.916 54.1032 76.5427 50.4093C79.768 45.8752 82.8846 41.2635 86.0463 36.6839C86.6518 35.8065 87.0354 34.8617 85.9154 34.1514C84.765 33.4221 84.1809 34.2988 83.5932 35.1552C80.5556 39.5835 77.4944 43.9952 74.4316 48.4064C74.2349 48.6897 73.9587 48.9174 73.6188 49.2779C73.2973 48.048 72.95 47.0284 72.791 45.9803C72.7088 45.439 72.7893 44.7261 73.0897 44.297C75.3581 41.0578 75.4515 37.2131 73.2472 34.1808C70.9897 31.0748 67.2359 29.9263 63.491 31.2709C62.7358 31.5421 62.2899 31.4699 61.7274 30.8688C58.6383 27.5671 55.153 24.7685 51.0898 22.7391H49.0399V22.7385Z" stroke="#3F6328" stroke-width="3"/>
<path fill-rule="evenodd" clip-rule="evenodd" d="M70.8378 52.2998C70.8519 64.6884 59.3022 75.263 47.0158 74.1113C39.3036 73.3877 33.3383 67.1656 32.8965 59.3849C32.1548 46.316 43.9659 34.8312 56.7305 36.2089C65.033 37.1047 70.8282 43.7155 70.8378 52.2998ZM48.4582 57.8619C52.0125 57.8346 54.6765 55.1075 54.5573 52.1877C54.5184 51.2329 54.1219 50.5343 53.1144 50.5112C52.1935 50.49 51.771 51.0876 51.6562 52.0013C51.3947 54.0829 50.7871 54.706 48.7387 54.9631C47.7569 55.0864 47.0334 55.5534 47.289 56.5234C47.4524 57.1436 48.2181 57.6042 48.4582 57.8619ZM60.7885 45.6835C60.7932 44.7348 58.7552 42.65 57.8036 42.6301C56.797 42.6086 55.9203 43.7002 56.4728 44.498C57.1416 45.4633 58.0475 46.3433 59.0302 46.9846C59.7982 47.4853 60.7835 46.6471 60.7885 45.6835ZM40.4707 59.6984C40.274 59.8395 39.7226 60.0341 39.5733 60.3957C39.3976 60.8205 39.3859 61.5202 39.6307 61.8706C40.1507 62.6156 40.8215 63.2953 41.5538 63.8322C41.9049 64.0896 42.6346 64.1503 43.0146 63.9537C43.3906 63.7594 43.7089 63.1462 43.7563 62.6857C43.8497 61.7785 41.6364 59.6834 40.4707 59.6984Z" stroke="#3F6328" stroke-width="3"/>
<path fill-rule="evenodd" clip-rule="evenodd" d="M91.7393 73.1419C91.1496 74.684 90.7898 76.131 90.0859 77.3834C86.164 84.3614 80.7053 89.821 73.6832 93.6765C73.0873 94.0038 72.449 94.2694 71.8057 94.4919C69.5125 95.2856 68.3009 94.936 66.8541 92.9976C63.0752 87.9349 60.4016 82.3171 58.5537 76.2848C58.3098 75.4891 58.4336 75.0626 59.2204 74.6772C64.6695 72.0104 68.6991 67.9109 71.4146 62.4745C71.5873 62.129 72.3612 61.7739 72.7228 61.8795C79.1464 63.763 85.1049 66.6115 90.3374 70.8378C90.9839 71.3603 91.2656 72.3368 91.7393 73.1419Z" stroke="#3F6328" stroke-width="3"/>
<path fill-rule="evenodd" clip-rule="evenodd" d="M93.9329 76.9568C94.0644 78.2071 94.1604 79.4625 94.3379 80.7064C94.505 81.8787 94.5929 83.1006 94.9987 84.1951C97.8673 91.9274 100.809 99.6314 103.722 107.347C103.803 107.562 103.816 107.802 103.837 107.91C101.3 108.635 98.8403 109.338 96.2581 110.077C95.2848 107.376 94.2781 104.536 93.2384 101.709C92.3119 99.1897 91.3691 96.6758 90.3935 94.1748C89.8158 92.6946 88.9204 92.421 87.712 93.4172C85.4152 95.311 82.8622 96.6406 79.9886 97.4263C79.4273 97.5798 78.8523 98.1815 78.5545 98.7257C76.6082 102.278 74.7366 105.871 72.841 109.451C72.5912 109.922 72.3441 110.394 72.0964 110.864C69.6983 109.689 67.3576 108.543 64.9326 107.355C66.4672 104.401 68.0021 101.411 69.5873 98.4468C69.7642 98.116 70.2022 97.7709 70.5615 97.7169C74.2186 97.1671 77.197 95.2206 80.0455 93.0656C85.759 88.743 90.4313 83.5138 93.9329 76.9568Z" stroke="#3F6328" stroke-width="3"/>
<path fill-rule="evenodd" clip-rule="evenodd" d="M60.0507 33.5972C51.1688 31.926 43.6276 34.4792 37.3856 40.7002C31.1163 46.9482 28.7522 54.5613 30.5462 63.5844C30.064 63.2783 29.7354 63.1662 29.5492 62.9372C27.3661 60.2566 25.1088 57.6288 23.0712 54.8404C21.7855 53.0808 22.3392 52.1668 24.4743 51.9978C26.4253 51.8437 26.7831 51.4278 26.4177 49.5C25.9167 46.8584 26.3966 44.3356 27.2826 41.8719C28.1745 39.3914 29.1352 36.9347 30.1222 34.4904C30.2853 34.0862 30.6756 33.628 31.0662 33.4854C34.6317 32.1851 38.1834 30.82 41.8221 29.7607C43.203 29.3589 44.8137 29.5805 46.2956 29.7408C48.0592 29.931 48.5886 29.6025 48.7066 27.7822C48.8483 25.5993 49.6061 25.1723 51.4909 26.2632C54.7609 28.1564 57.5958 30.5749 60.0507 33.5972Z" stroke="#3F6328" stroke-width="3"/>
<path fill-rule="evenodd" clip-rule="evenodd" d="M63.6495 109.964C66.1099 111.186 68.3956 112.322 70.8048 113.519C70.1618 114.792 69.7149 115.816 69.1492 116.767C68.0711 118.58 65.9143 119.221 64.0647 118.351C62.1606 117.455 61.2585 115.296 62.0379 113.289C62.4411 112.251 63.0065 111.276 63.6495 109.964Z" stroke="#3F6328" stroke-width="3"/>
<path fill-rule="evenodd" clip-rule="evenodd" d="M102.006 118.73C99.8766 118.636 98.5613 117.543 97.9637 115.667C97.1286 113.048 97.1412 112.909 99.7023 112.051C101.073 111.591 102.531 111.376 103.961 111.12C104.283 111.062 104.779 111.183 104.985 111.412C105.913 112.443 106.026 115.618 105.213 116.861C104.374 118.145 103.164 118.757 102.006 118.73Z" stroke="#3F6328" stroke-width="3"/>
<path fill-rule="evenodd" clip-rule="evenodd" d="M71.095 41.8642C69.8515 40.4899 68.7754 39.0855 67.4789 37.9291C66.1812 36.7714 64.6636 35.8616 63.252 34.8504C64.8709 33.1806 67.8522 33.1387 69.9188 34.8199C72.0859 36.5824 72.5752 39.5316 71.095 41.8642Z" stroke="#3F6328" stroke-width="3"/>
<path fill-rule="evenodd" clip-rule="evenodd" d="M38.8 74.3662C36.1255 75.8889 33.3219 75.402 31.5926 73.3154C29.9315 71.3107 29.9326 68.4123 31.6842 66.4199C33.3099 69.6726 35.5864 72.3245 38.8 74.3662Z" stroke="#3F6328" stroke-width="3"/>
<path fill-rule="evenodd" clip-rule="evenodd" d="M48.4583 57.8619C48.2182 57.6042 47.4526 57.1437 47.2892 56.5238C47.0333 55.5538 47.7571 55.0868 48.7389 54.9635C50.7873 54.7064 51.3949 54.0833 51.6564 52.0017C51.7711 51.088 52.194 50.4904 53.1145 50.5115C54.1221 50.5347 54.5182 51.233 54.5575 52.1881C54.6763 55.1073 52.0127 57.8346 48.4583 57.8619Z" stroke="#3F6328" stroke-width="3"/>
</svg>
