<svg width="250" height="211" viewBox="0 0 250 211" fill="none" xmlns="http://www.w3.org/2000/svg">
<path d="M11.928 161.808H5.256L4.152 165H0.624L6.648 148.224H10.56L16.584 165H13.032L11.928 161.808ZM11.016 159.12L8.592 152.112L6.168 159.12H11.016ZM31.8677 151.704V165H28.4837V163.32C28.0517 163.896 27.4837 164.352 26.7797 164.688C26.0917 165.008 25.3397 165.168 24.5237 165.168C23.4837 165.168 22.5637 164.952 21.7637 164.52C20.9637 164.072 20.3317 163.424 19.8677 162.576C19.4197 161.712 19.1957 160.688 19.1957 159.504V151.704H22.5557V159.024C22.5557 160.08 22.8197 160.896 23.3477 161.472C23.8757 162.032 24.5957 162.312 25.5077 162.312C26.4357 162.312 27.1637 162.032 27.6917 161.472C28.2197 160.896 28.4837 160.08 28.4837 159.024V151.704H31.8677ZM28.2197 148.248L22.6997 150.768V148.368L28.2197 145.512V148.248ZM43.0309 151.512C44.6149 151.512 45.8949 152.016 46.8709 153.024C47.8469 154.016 48.3349 155.408 48.3349 157.2V165H44.9749V157.656C44.9749 156.6 44.7109 155.792 44.1829 155.232C43.6549 154.656 42.9349 154.368 42.0229 154.368C41.0949 154.368 40.3589 154.656 39.8149 155.232C39.2869 155.792 39.0229 156.6 39.0229 157.656V165H35.6629V151.704H39.0229V153.36C39.4709 152.784 40.0389 152.336 40.7269 152.016C41.4309 151.68 42.1989 151.512 43.0309 151.512ZM65.5768 151.512C67.1608 151.512 68.4408 152.016 69.4168 153.024C70.3928 154.016 70.8808 155.408 70.8808 157.2V165H67.5208V157.656C67.5208 156.6 67.2568 155.792 66.7288 155.232C66.2008 154.656 65.4808 154.368 64.5688 154.368C63.6408 154.368 62.9048 154.656 62.3608 155.232C61.8328 155.792 61.5688 156.6 61.5688 157.656V165H58.2088V151.704H61.5688V153.36C62.0168 152.784 62.5848 152.336 63.2728 152.016C63.9768 151.68 64.7448 151.512 65.5768 151.512ZM80.46 165.216C79.18 165.216 78.028 164.936 77.004 164.376C75.98 163.8 75.172 162.992 74.58 161.952C74.004 160.912 73.716 159.712 73.716 158.352C73.716 156.992 74.012 155.792 74.604 154.752C75.212 153.712 76.036 152.912 77.076 152.352C78.116 151.776 79.276 151.488 80.556 151.488C81.836 151.488 82.996 151.776 84.036 152.352C85.076 152.912 85.892 153.712 86.484 154.752C87.092 155.792 87.396 156.992 87.396 158.352C87.396 159.712 87.084 160.912 86.46 161.952C85.852 162.992 85.02 163.8 83.964 164.376C82.924 164.936 81.756 165.216 80.46 165.216ZM80.46 162.288C81.068 162.288 81.636 162.144 82.164 161.856C82.708 161.552 83.14 161.104 83.46 160.512C83.78 159.92 83.94 159.2 83.94 158.352C83.94 157.088 83.604 156.12 82.932 155.448C82.276 154.76 81.468 154.416 80.508 154.416C79.548 154.416 78.74 154.76 78.084 155.448C77.444 156.12 77.124 157.088 77.124 158.352C77.124 159.616 77.436 160.592 78.06 161.28C78.7 161.952 79.5 162.288 80.46 162.288ZM100.451 154.464V160.896C100.451 161.344 100.555 161.672 100.763 161.88C100.987 162.072 101.355 162.168 101.867 162.168H103.427V165H101.315C98.4834 165 97.0674 163.624 97.0674 160.872V154.464H95.4834V151.704H97.0674V148.416H100.451V151.704H103.427V154.464H100.451ZM108.028 150.12C107.436 150.12 106.94 149.936 106.54 149.568C106.156 149.184 105.964 148.712 105.964 148.152C105.964 147.592 106.156 147.128 106.54 146.76C106.94 146.376 107.436 146.184 108.028 146.184C108.62 146.184 109.108 146.376 109.492 146.76C109.892 147.128 110.092 147.592 110.092 148.152C110.092 148.712 109.892 149.184 109.492 149.568C109.108 149.936 108.62 150.12 108.028 150.12ZM109.684 151.704V165H106.324V151.704H109.684ZM125.844 158.064C125.844 158.544 125.812 158.976 125.748 159.36H116.028C116.108 160.32 116.444 161.072 117.036 161.616C117.628 162.16 118.356 162.432 119.22 162.432C120.468 162.432 121.356 161.896 121.884 160.824H125.508C125.124 162.104 124.388 163.16 123.3 163.992C122.212 164.808 120.876 165.216 119.292 165.216C118.012 165.216 116.86 164.936 115.836 164.376C114.828 163.8 114.036 162.992 113.46 161.952C112.9 160.912 112.62 159.712 112.62 158.352C112.62 156.976 112.9 155.768 113.46 154.728C114.02 153.688 114.804 152.888 115.812 152.328C116.82 151.768 117.98 151.488 119.292 151.488C120.556 151.488 121.684 151.76 122.676 152.304C123.684 152.848 124.46 153.624 125.004 154.632C125.564 155.624 125.844 156.768 125.844 158.064ZM122.364 157.104C122.348 156.24 122.036 155.552 121.428 155.04C120.82 154.512 120.076 154.248 119.196 154.248C118.364 154.248 117.66 154.504 117.084 155.016C116.524 155.512 116.18 156.208 116.052 157.104H122.364ZM136.144 151.512C137.728 151.512 139.008 152.016 139.984 153.024C140.96 154.016 141.448 155.408 141.448 157.2V165H138.088V157.656C138.088 156.6 137.824 155.792 137.296 155.232C136.768 154.656 136.048 154.368 135.136 154.368C134.208 154.368 133.472 154.656 132.928 155.232C132.4 155.792 132.136 156.6 132.136 157.656V165H128.776V151.704H132.136V153.36C132.584 152.784 133.152 152.336 133.84 152.016C134.544 151.68 135.312 151.512 136.144 151.512ZM157.484 158.064C157.484 158.544 157.451 158.976 157.387 159.36H147.667C147.747 160.32 148.083 161.072 148.675 161.616C149.267 162.16 149.995 162.432 150.859 162.432C152.107 162.432 152.995 161.896 153.523 160.824H157.148C156.763 162.104 156.027 163.16 154.939 163.992C153.851 164.808 152.515 165.216 150.931 165.216C149.651 165.216 148.499 164.936 147.475 164.376C146.467 163.8 145.675 162.992 145.099 161.952C144.539 160.912 144.259 159.712 144.259 158.352C144.259 156.976 144.539 155.768 145.099 154.728C145.659 153.688 146.443 152.888 147.451 152.328C148.459 151.768 149.619 151.488 150.931 151.488C152.195 151.488 153.323 151.76 154.315 152.304C155.323 152.848 156.099 153.624 156.643 154.632C157.203 155.624 157.484 156.768 157.484 158.064ZM154.003 157.104C153.987 156.24 153.675 155.552 153.067 155.04C152.459 154.512 151.715 154.248 150.835 154.248C150.003 154.248 149.299 154.504 148.723 155.016C148.163 155.512 147.819 156.208 147.691 157.104H154.003ZM165.504 165.216C164.416 165.216 163.44 165.024 162.576 164.64C161.712 164.24 161.024 163.704 160.512 163.032C160.016 162.36 159.744 161.616 159.696 160.8H163.08C163.144 161.312 163.392 161.736 163.824 162.072C164.272 162.408 164.824 162.576 165.48 162.576C166.12 162.576 166.616 162.448 166.968 162.192C167.336 161.936 167.52 161.608 167.52 161.208C167.52 160.776 167.296 160.456 166.848 160.248C166.416 160.024 165.72 159.784 164.76 159.528C163.768 159.288 162.952 159.04 162.312 158.784C161.688 158.528 161.144 158.136 160.68 157.608C160.232 157.08 160.008 156.368 160.008 155.472C160.008 154.736 160.216 154.064 160.632 153.456C161.064 152.848 161.672 152.368 162.456 152.016C163.256 151.664 164.192 151.488 165.264 151.488C166.848 151.488 168.112 151.888 169.056 152.688C170 153.472 170.52 154.536 170.616 155.88H167.4C167.352 155.352 167.128 154.936 166.728 154.632C166.344 154.312 165.824 154.152 165.168 154.152C164.56 154.152 164.088 154.264 163.752 154.488C163.432 154.712 163.272 155.024 163.272 155.424C163.272 155.872 163.496 156.216 163.944 156.456C164.392 156.68 165.088 156.912 166.032 157.152C166.992 157.392 167.784 157.64 168.408 157.896C169.032 158.152 169.568 158.552 170.016 159.096C170.48 159.624 170.72 160.328 170.736 161.208C170.736 161.976 170.52 162.664 170.088 163.272C169.672 163.88 169.064 164.36 168.264 164.712C167.48 165.048 166.56 165.216 165.504 165.216ZM192.725 151.704V165H189.341V163.32C188.909 163.896 188.341 164.352 187.637 164.688C186.949 165.008 186.197 165.168 185.381 165.168C184.341 165.168 183.421 164.952 182.621 164.52C181.821 164.072 181.189 163.424 180.725 162.576C180.277 161.712 180.053 160.688 180.053 159.504V151.704H183.413V159.024C183.413 160.08 183.677 160.896 184.205 161.472C184.733 162.032 185.453 162.312 186.365 162.312C187.293 162.312 188.021 162.032 188.549 161.472C189.077 160.896 189.341 160.08 189.341 159.024V151.704H192.725ZM203.888 151.512C205.472 151.512 206.752 152.016 207.728 153.024C208.704 154.016 209.192 155.408 209.192 157.2V165H205.832V157.656C205.832 156.6 205.568 155.792 205.04 155.232C204.512 154.656 203.792 154.368 202.88 154.368C201.952 154.368 201.216 154.656 200.672 155.232C200.144 155.792 199.88 156.6 199.88 157.656V165H196.52V151.704H199.88V153.36C200.328 152.784 200.896 152.336 201.584 152.016C202.288 151.68 203.056 151.512 203.888 151.512ZM5.016 189.624C5.448 189.016 6.04 188.512 6.792 188.112C7.56 187.696 8.432 187.488 9.408 187.488C10.544 187.488 11.568 187.768 12.48 188.328C13.408 188.888 14.136 189.688 14.664 190.728C15.208 191.752 15.48 192.944 15.48 194.304C15.48 195.664 15.208 196.872 14.664 197.928C14.136 198.968 13.408 199.776 12.48 200.352C11.568 200.928 10.544 201.216 9.408 201.216C8.432 201.216 7.568 201.016 6.816 200.616C6.08 200.216 5.48 199.712 5.016 199.104V207.336H1.656V187.704H5.016V189.624ZM12.048 194.304C12.048 193.504 11.88 192.816 11.544 192.24C11.224 191.648 10.792 191.2 10.248 190.896C9.72 190.592 9.144 190.44 8.52 190.44C7.912 190.44 7.336 190.6 6.792 190.92C6.264 191.224 5.832 191.672 5.496 192.264C5.176 192.856 5.016 193.552 5.016 194.352C5.016 195.152 5.176 195.848 5.496 196.44C5.832 197.032 6.264 197.488 6.792 197.808C7.336 198.112 7.912 198.264 8.52 198.264C9.144 198.264 9.72 198.104 10.248 197.784C10.792 197.464 11.224 197.008 11.544 196.416C11.88 195.824 12.048 195.12 12.048 194.304ZM21.7616 183.24V201H18.4016V183.24H21.7616ZM24.6973 194.304C24.6973 192.96 24.9613 191.768 25.4893 190.728C26.0333 189.688 26.7613 188.888 27.6733 188.328C28.6013 187.768 29.6333 187.488 30.7693 187.488C31.7613 187.488 32.6253 187.688 33.3613 188.088C34.1133 188.488 34.7133 188.992 35.1613 189.6V187.704H38.5453V201H35.1613V199.056C34.7293 199.68 34.1293 200.2 33.3613 200.616C32.6093 201.016 31.7373 201.216 30.7453 201.216C29.6253 201.216 28.6013 200.928 27.6733 200.352C26.7613 199.776 26.0333 198.968 25.4893 197.928C24.9613 196.872 24.6973 195.664 24.6973 194.304ZM35.1613 194.352C35.1613 193.536 35.0013 192.84 34.6813 192.264C34.3613 191.672 33.9293 191.224 33.3853 190.92C32.8413 190.6 32.2573 190.44 31.6333 190.44C31.0093 190.44 30.4333 190.592 29.9053 190.896C29.3773 191.2 28.9453 191.648 28.6093 192.24C28.2893 192.816 28.1293 193.504 28.1293 194.304C28.1293 195.104 28.2893 195.808 28.6093 196.416C28.9453 197.008 29.3773 197.464 29.9053 197.784C30.4493 198.104 31.0253 198.264 31.6333 198.264C32.2573 198.264 32.8413 198.112 33.3853 197.808C33.9293 197.488 34.3613 197.04 34.6813 196.464C35.0013 195.872 35.1613 195.168 35.1613 194.352ZM49.6749 187.512C51.2589 187.512 52.5389 188.016 53.5149 189.024C54.4909 190.016 54.9789 191.408 54.9789 193.2V201H51.6189V193.656C51.6189 192.6 51.3549 191.792 50.8269 191.232C50.2989 190.656 49.5789 190.368 48.6669 190.368C47.7389 190.368 47.0029 190.656 46.4589 191.232C45.9309 191.792 45.6669 192.6 45.6669 193.656V201H42.3069V187.704H45.6669V189.36C46.1149 188.784 46.6829 188.336 47.3709 188.016C48.0749 187.68 48.8429 187.512 49.6749 187.512ZM63.9889 194.304C63.9889 192.96 64.2529 191.768 64.7809 190.728C65.3249 189.688 66.0529 188.888 66.9649 188.328C67.8929 187.768 68.9249 187.488 70.0609 187.488C71.0529 187.488 71.9169 187.688 72.6529 188.088C73.4049 188.488 74.0049 188.992 74.4529 189.6V187.704H77.8369V201H74.4529V199.056C74.0209 199.68 73.4209 200.2 72.6529 200.616C71.9009 201.016 71.0289 201.216 70.0369 201.216C68.9169 201.216 67.8929 200.928 66.9649 200.352C66.0529 199.776 65.3249 198.968 64.7809 197.928C64.2529 196.872 63.9889 195.664 63.9889 194.304ZM74.4529 194.352C74.4529 193.536 74.2929 192.84 73.9729 192.264C73.6529 191.672 73.2209 191.224 72.6769 190.92C72.1329 190.6 71.5489 190.44 70.9249 190.44C70.3009 190.44 69.7249 190.592 69.1969 190.896C68.6689 191.2 68.2369 191.648 67.9009 192.24C67.5809 192.816 67.4209 193.504 67.4209 194.304C67.4209 195.104 67.5809 195.808 67.9009 196.416C68.2369 197.008 68.6689 197.464 69.1969 197.784C69.7409 198.104 70.3169 198.264 70.9249 198.264C71.5489 198.264 72.1329 198.112 72.6769 197.808C73.2209 197.488 73.6529 197.04 73.9729 196.464C74.2929 195.872 74.4529 195.168 74.4529 194.352ZM86.6865 201.216C85.5985 201.216 84.6225 201.024 83.7585 200.64C82.8945 200.24 82.2065 199.704 81.6945 199.032C81.1985 198.36 80.9265 197.616 80.8785 196.8H84.2625C84.3265 197.312 84.5745 197.736 85.0065 198.072C85.4545 198.408 86.0065 198.576 86.6625 198.576C87.3025 198.576 87.7985 198.448 88.1505 198.192C88.5185 197.936 88.7025 197.608 88.7025 197.208C88.7025 196.776 88.4785 196.456 88.0305 196.248C87.5985 196.024 86.9025 195.784 85.9425 195.528C84.9505 195.288 84.1345 195.04 83.4945 194.784C82.8705 194.528 82.3265 194.136 81.8625 193.608C81.4145 193.08 81.1905 192.368 81.1905 191.472C81.1905 190.736 81.3985 190.064 81.8145 189.456C82.2465 188.848 82.8545 188.368 83.6385 188.016C84.4385 187.664 85.3745 187.488 86.4465 187.488C88.0305 187.488 89.2945 187.888 90.2385 188.688C91.1825 189.472 91.7025 190.536 91.7985 191.88H88.5825C88.5345 191.352 88.3105 190.936 87.9105 190.632C87.5265 190.312 87.0065 190.152 86.3505 190.152C85.7425 190.152 85.2705 190.264 84.9345 190.488C84.6145 190.712 84.4545 191.024 84.4545 191.424C84.4545 191.872 84.6785 192.216 85.1265 192.456C85.5745 192.68 86.2705 192.912 87.2145 193.152C88.1745 193.392 88.9665 193.64 89.5905 193.896C90.2145 194.152 90.7505 194.552 91.1985 195.096C91.6625 195.624 91.9025 196.328 91.9185 197.208C91.9185 197.976 91.7025 198.664 91.2705 199.272C90.8545 199.88 90.2465 200.36 89.4465 200.712C88.6625 201.048 87.7425 201.216 86.6865 201.216ZM96.8606 186.12C96.2686 186.12 95.7726 185.936 95.3726 185.568C94.9886 185.184 94.7966 184.712 94.7966 184.152C94.7966 183.592 94.9886 183.128 95.3726 182.76C95.7726 182.376 96.2686 182.184 96.8606 182.184C97.4526 182.184 97.9406 182.376 98.3246 182.76C98.7246 183.128 98.9246 183.592 98.9246 184.152C98.9246 184.712 98.7246 185.184 98.3246 185.568C97.9406 185.936 97.4526 186.12 96.8606 186.12ZM98.5166 187.704V201H95.1566V187.704H98.5166ZM107.524 187.488C108.516 187.488 109.388 187.688 110.14 188.088C110.892 188.472 111.484 188.976 111.916 189.6V187.704H115.3V201.096C115.3 202.328 115.052 203.424 114.556 204.384C114.06 205.36 113.316 206.128 112.324 206.688C111.332 207.264 110.132 207.552 108.724 207.552C106.836 207.552 105.284 207.112 104.068 206.232C102.868 205.352 102.188 204.152 102.028 202.632H105.364C105.54 203.24 105.916 203.72 106.492 204.072C107.084 204.44 107.796 204.624 108.628 204.624C109.604 204.624 110.396 204.328 111.004 203.736C111.612 203.16 111.916 202.28 111.916 201.096V199.032C111.484 199.656 110.884 200.176 110.116 200.592C109.364 201.008 108.5 201.216 107.524 201.216C106.404 201.216 105.38 200.928 104.452 200.352C103.524 199.776 102.788 198.968 102.244 197.928C101.716 196.872 101.452 195.664 101.452 194.304C101.452 192.96 101.716 191.768 102.244 190.728C102.788 189.688 103.516 188.888 104.428 188.328C105.356 187.768 106.388 187.488 107.524 187.488ZM111.916 194.352C111.916 193.536 111.756 192.84 111.436 192.264C111.116 191.672 110.684 191.224 110.14 190.92C109.596 190.6 109.012 190.44 108.388 190.44C107.764 190.44 107.188 190.592 106.66 190.896C106.132 191.2 105.7 191.648 105.364 192.24C105.044 192.816 104.884 193.504 104.884 194.304C104.884 195.104 105.044 195.808 105.364 196.416C105.7 197.008 106.132 197.464 106.66 197.784C107.204 198.104 107.78 198.264 108.388 198.264C109.012 198.264 109.596 198.112 110.14 197.808C110.684 197.488 111.116 197.04 111.436 196.464C111.756 195.872 111.916 195.168 111.916 194.352ZM126.43 187.512C128.014 187.512 129.294 188.016 130.27 189.024C131.246 190.016 131.734 191.408 131.734 193.2V201H128.374V193.656C128.374 192.6 128.11 191.792 127.582 191.232C127.054 190.656 126.334 190.368 125.422 190.368C124.494 190.368 123.758 190.656 123.214 191.232C122.686 191.792 122.422 192.6 122.422 193.656V201H119.062V187.704H122.422V189.36C122.87 188.784 123.438 188.336 124.126 188.016C124.83 187.68 125.598 187.512 126.43 187.512ZM134.545 194.304C134.545 192.96 134.809 191.768 135.337 190.728C135.881 189.688 136.609 188.888 137.521 188.328C138.449 187.768 139.481 187.488 140.617 187.488C141.609 187.488 142.473 187.688 143.209 188.088C143.961 188.488 144.561 188.992 145.009 189.6V187.704H148.393V201H145.009V199.056C144.577 199.68 143.977 200.2 143.209 200.616C142.457 201.016 141.585 201.216 140.593 201.216C139.473 201.216 138.449 200.928 137.521 200.352C136.609 199.776 135.881 198.968 135.337 197.928C134.809 196.872 134.545 195.664 134.545 194.304ZM145.009 194.352C145.009 193.536 144.849 192.84 144.529 192.264C144.209 191.672 143.777 191.224 143.233 190.92C142.689 190.6 142.105 190.44 141.481 190.44C140.857 190.44 140.281 190.592 139.753 190.896C139.225 191.2 138.793 191.648 138.457 192.24C138.137 192.816 137.977 193.504 137.977 194.304C137.977 195.104 138.137 195.808 138.457 196.416C138.793 197.008 139.225 197.464 139.753 197.784C140.297 198.104 140.873 198.264 141.481 198.264C142.105 198.264 142.689 198.112 143.233 197.808C143.777 197.488 144.209 197.04 144.529 196.464C144.849 195.872 145.009 195.168 145.009 194.352ZM151.291 194.304C151.291 192.96 151.555 191.768 152.083 190.728C152.627 189.688 153.363 188.888 154.291 188.328C155.219 187.768 156.251 187.488 157.387 187.488C158.251 187.488 159.075 187.68 159.859 188.064C160.643 188.432 161.267 188.928 161.731 189.552V183.24H165.139V201H161.731V199.032C161.315 199.688 160.731 200.216 159.979 200.616C159.227 201.016 158.355 201.216 157.363 201.216C156.243 201.216 155.219 200.928 154.291 200.352C153.363 199.776 152.627 198.968 152.083 197.928C151.555 196.872 151.291 195.664 151.291 194.304ZM161.755 194.352C161.755 193.536 161.595 192.84 161.275 192.264C160.955 191.672 160.523 191.224 159.979 190.92C159.435 190.6 158.851 190.44 158.227 190.44C157.603 190.44 157.027 190.592 156.499 190.896C155.971 191.2 155.539 191.648 155.203 192.24C154.883 192.816 154.723 193.504 154.723 194.304C154.723 195.104 154.883 195.808 155.203 196.416C155.539 197.008 155.971 197.464 156.499 197.784C157.043 198.104 157.619 198.264 158.227 198.264C158.851 198.264 159.435 198.112 159.979 197.808C160.523 197.488 160.955 197.04 161.275 196.464C161.595 195.872 161.755 195.168 161.755 194.352ZM174.804 201.216C173.524 201.216 172.372 200.936 171.348 200.376C170.324 199.8 169.516 198.992 168.924 197.952C168.348 196.912 168.06 195.712 168.06 194.352C168.06 192.992 168.356 191.792 168.948 190.752C169.556 189.712 170.38 188.912 171.42 188.352C172.46 187.776 173.62 187.488 174.9 187.488C176.18 187.488 177.34 187.776 178.38 188.352C179.42 188.912 180.236 189.712 180.828 190.752C181.436 191.792 181.74 192.992 181.74 194.352C181.74 195.712 181.428 196.912 180.804 197.952C180.196 198.992 179.364 199.8 178.308 200.376C177.268 200.936 176.1 201.216 174.804 201.216ZM174.804 198.288C175.412 198.288 175.98 198.144 176.508 197.856C177.052 197.552 177.484 197.104 177.804 196.512C178.124 195.92 178.284 195.2 178.284 194.352C178.284 193.088 177.948 192.12 177.276 191.448C176.62 190.76 175.812 190.416 174.852 190.416C173.892 190.416 173.084 190.76 172.428 191.448C171.788 192.12 171.468 193.088 171.468 194.352C171.468 195.616 171.78 196.592 172.404 197.28C173.044 197.952 173.844 198.288 174.804 198.288ZM190.02 205.728V205.392C191.636 203.728 192.876 201.768 193.74 199.512C194.62 197.24 195.06 194.888 195.06 192.456C195.06 189.96 194.596 187.536 193.668 185.184C192.756 182.832 191.42 180.816 189.66 179.136V178.824H193.044C194.756 180.36 196.06 182.336 196.956 184.752C197.852 187.152 198.3 189.72 198.3 192.456C198.3 195.128 197.868 197.632 197.004 199.968C196.156 202.304 194.956 204.224 193.404 205.728H190.02ZM204.5 201.168C203.892 201.168 203.388 200.984 202.988 200.616C202.604 200.232 202.412 199.76 202.412 199.2C202.412 198.64 202.604 198.176 202.988 197.808C203.388 197.424 203.892 197.232 204.5 197.232C205.092 197.232 205.58 197.424 205.964 197.808C206.348 198.176 206.54 198.64 206.54 199.2C206.54 199.76 206.348 200.232 205.964 200.616C205.58 200.984 205.092 201.168 204.5 201.168ZM204.5 191.232C203.892 191.232 203.388 191.048 202.988 190.68C202.604 190.296 202.412 189.824 202.412 189.264C202.412 188.704 202.604 188.24 202.988 187.872C203.388 187.488 203.892 187.296 204.5 187.296C205.092 187.296 205.58 187.488 205.964 187.872C206.348 188.24 206.54 188.704 206.54 189.264C206.54 189.824 206.348 190.296 205.964 190.68C205.58 191.048 205.092 191.232 204.5 191.232Z" fill="#3F6328"/>
<path fill-rule="evenodd" clip-rule="evenodd" d="M70.3268 122.683C70.2978 122.618 70.2835 122.51 70.2383 122.494C63.9891 120.4 60.9925 115.565 59.424 109.564C58.2124 104.929 58.079 100.179 58.1046 95.4228C58.1169 93.1265 58.2148 90.8306 58.2193 88.5343C58.2247 86.1044 59.1184 84.0722 60.803 82.3623C62.8749 80.2586 65.4443 78.9897 68.1545 77.946C68.4892 77.8169 69.0315 77.8736 69.0955 77.3714C69.161 76.8565 68.7166 76.648 68.344 76.4105C62.7681 72.8497 59.8473 67.7638 59.61 61.1404C59.6017 60.9029 59.5677 60.6639 59.5854 60.4283C59.6962 58.9372 59.2838 58.0635 57.6518 57.4386C54.5706 56.2579 52.8126 52.9302 53.0159 49.5867C53.2137 46.3265 55.4771 43.3822 58.676 42.4001C59.4309 42.168 59.6278 41.859 59.6657 41.1159C59.9319 35.8511 59.7326 30.5843 59.8044 25.3195C59.8108 24.8484 59.7912 24.3398 59.956 23.9166C60.236 23.1976 60.833 22.8113 61.6372 22.8536C62.4856 22.8985 63.0944 23.3311 63.2435 24.1639C63.3744 24.8957 63.3577 25.6585 63.3606 26.4075C63.372 29.3381 63.3902 32.2686 63.3493 35.1987C63.338 36.0117 63.4999 36.1921 64.3159 35.9275C69.3608 34.2939 74.5277 33.2009 79.7897 32.547C87.4444 31.595 95.0883 31.6625 102.726 32.7363C107.465 33.403 112.122 34.4339 116.672 35.9206C117.429 36.168 117.66 36.0876 117.656 35.2169C117.626 26.8215 117.63 18.4256 117.653 10.0306C117.654 9.33235 117.477 9.00909 116.768 8.77847C106.623 5.47687 96.2359 4.08527 85.5802 4.72637C78.3295 5.16297 71.253 6.48657 64.3464 8.75137C63.5575 9.01008 63.3237 9.35157 63.3444 10.1607C63.4034 12.496 63.3833 14.8332 63.3572 17.17C63.3419 18.5241 62.588 19.3392 61.488 19.2884C60.5495 19.245 59.8281 18.5379 59.8177 17.4829C59.7857 14.2754 59.8049 11.0674 59.8064 7.85994C59.8069 6.88473 60.3704 6.34416 61.2307 6.04307C67.2106 3.95321 73.3323 2.47882 79.6204 1.6682C81.1908 1.46567 82.8163 1.60267 84.3306 1C88.2869 1 92.2427 1 96.1985 1C97.2552 1.4642 98.3989 1.33558 99.5013 1.45188C106.442 2.18562 113.195 3.72752 119.779 6.03814C120.96 6.45257 121.219 7.3169 121.216 8.46014C121.195 18.0052 121.198 27.5508 121.211 37.0959C121.213 38.4806 121.355 39.8653 121.34 41.249C121.333 41.9453 121.616 42.1655 122.229 42.3676C125.451 43.428 127.406 45.6815 127.9 49.0181C128.368 52.1718 127.175 54.755 124.673 56.7212C123.985 57.2627 123.213 57.688 122.366 57.8925C121.711 58.0502 121.516 58.3675 121.493 59.0259C121.397 61.8312 121.287 64.6302 120.235 67.3065C118.72 71.159 116.246 74.1822 112.741 76.3696C112.381 76.5948 111.905 76.7495 111.911 77.2817C111.916 77.9125 112.53 77.8159 112.877 77.949C115.441 78.9311 117.864 80.1418 119.888 82.0439C121.799 83.8396 122.814 86.0182 122.788 88.6782C122.77 90.4196 122.846 92.1626 122.865 93.9051C122.879 95.2567 122.289 96.0186 121.211 96.0772C120.082 96.1393 119.366 95.3962 119.311 93.9997C119.247 92.3779 119.164 90.7488 119.24 89.1305C119.347 86.884 118.374 85.244 116.648 83.9667C113.498 81.6349 109.833 80.5582 106.09 79.683C105.67 79.585 105.245 79.5125 104.783 79.4209C104.593 81.0392 104.827 82.6239 104.554 84.1959C103.787 88.6048 100.048 91.9453 95.5765 92.033C92.255 92.099 88.9311 92.0921 85.6092 92.0429C80.5146 91.967 76.4983 87.974 76.2999 82.8447C76.263 81.8956 76.2812 80.9441 76.2881 79.9935C76.2906 79.6313 76.2615 79.3825 75.7768 79.4904C71.7964 80.3803 67.8755 81.4206 64.4871 83.8475C62.6608 85.1553 61.7262 86.8431 61.7553 89.1798C61.8163 94.047 61.4541 98.9205 62.0137 103.779C62.3956 107.094 63.0407 110.339 64.6274 113.32C65.7027 115.341 67.1471 117.016 69.3475 118.222C69.3475 117.227 69.3475 116.377 69.3475 115.527C69.3475 110.259 69.3411 104.992 69.3514 99.7238C69.3544 98.2134 70.2771 97.3693 71.5508 97.6999C72.6133 97.9764 72.9145 98.784 72.913 99.7858C72.9086 103.944 72.9111 108.103 72.9111 112.262C72.9111 114.282 72.9322 116.302 72.8983 118.322C72.8879 118.917 73.0144 119.133 73.6665 119.132C84.9005 119.111 96.1341 119.106 107.368 119.138C108.226 119.14 108.094 118.677 108.094 118.172C108.093 112.152 108.092 106.131 108.094 100.112C108.094 99.6395 108.052 99.1645 108.266 98.7116C108.655 97.8877 109.3 97.5383 110.186 97.6708C111.033 97.7975 111.514 98.3282 111.63 99.163C111.684 99.5523 111.656 99.9539 111.657 100.35C111.658 106.245 111.657 112.14 111.657 118.153C113.003 117.592 113.965 116.689 114.817 115.664C117.23 112.761 118.175 109.268 118.737 105.64C118.955 104.233 119.054 102.809 119.216 101.394C119.34 100.312 120.124 99.5947 121.094 99.6582C122.03 99.7203 122.826 100.48 122.752 101.485C122.334 107.211 121.472 112.816 117.854 117.569C116.101 119.871 113.809 121.421 111.101 122.386C110.941 122.443 110.683 122.394 110.677 122.684C97.2271 122.683 83.777 122.683 70.3268 122.683ZM91.6177 53.7073C95.949 53.6827 101.495 53.6457 107.002 54.1459C109.691 54.3898 111.762 53.5743 113.757 52.0442C115.147 50.9769 116.314 49.7025 117.352 48.2883C117.872 47.5792 118.085 46.8573 118.018 45.9821C117.904 44.4831 117.757 42.9722 117.835 41.4776C117.901 40.2343 117.378 39.8258 116.284 39.4774C104.117 35.6037 91.7112 34.5157 79.0682 36.2182C73.977 36.9042 68.9868 38.0666 64.1121 39.7125C63.5314 39.9086 63.2071 40.119 63.2017 40.8301C63.1879 42.6889 63.084 44.5481 62.9797 46.4049C62.9467 46.9918 63.1131 47.4648 63.431 47.9458C64.9891 50.3032 67.0167 52.1324 69.4809 53.5004C70.4361 54.0311 71.4007 54.279 72.5213 54.2001C78.4771 53.7832 84.4453 53.7029 91.6177 53.7073ZM90.4568 75.7891C96.1872 75.7344 101.916 75.6029 107.641 75.3619C108.386 75.3308 108.704 75.1727 108.835 74.332C109.641 69.1268 109.647 63.9388 108.841 58.7332C108.714 57.9152 108.419 57.721 107.672 57.6826C102.382 57.411 97.0888 57.2805 91.7919 57.2691C85.6653 57.2558 79.5411 57.3563 73.4214 57.6766C72.6591 57.7171 72.2915 57.8506 72.1527 58.7612C71.3657 63.929 71.3589 69.076 72.1561 74.2428C72.2875 75.0943 72.5538 75.3358 73.3894 75.3688C79.0771 75.5964 84.7657 75.7325 90.4568 75.7891ZM90.5714 79.1912C90.5714 79.2046 90.5714 79.2188 90.5714 79.2321C88.1206 79.2321 85.6697 79.2179 83.2189 79.2386C82.1254 79.2479 80.6529 78.7103 80.0397 79.3953C79.3881 80.1236 79.829 81.5842 79.8679 82.72C79.9806 85.998 82.4807 88.4466 85.747 88.4796C88.9892 88.5116 92.2329 88.5195 95.4746 88.4697C98.1459 88.4283 100.375 86.5169 100.978 83.9111C101.268 82.655 101.063 81.3836 101.172 80.1265C101.242 79.3061 100.924 79.1642 100.178 79.1735C96.9761 79.2154 93.7738 79.1912 90.5714 79.1912ZM68.2362 71.9484C68.1442 70.4257 68.0325 69.1682 67.9985 67.9086C67.9109 64.6977 68.1398 61.5065 68.6221 58.3291C68.6885 57.891 69.0965 57.2775 68.4223 56.9547C66.4316 56.0022 64.6988 54.6771 62.9841 53.0835C62.8901 56.4092 62.9654 59.5384 63.2814 62.6389C63.6505 66.2598 65.2982 69.3121 68.2362 71.9484ZM118.086 53.0002C116.457 54.5401 114.974 55.7873 113.211 56.5985C112.363 56.9882 112.199 57.4648 112.343 58.3281C113.022 62.4038 113.218 66.5047 112.839 70.6268C112.805 70.9934 112.834 71.3665 112.834 71.8065C114.959 70.0808 116.643 67.5085 117.31 64.7431C118.218 60.9753 117.915 57.1173 118.086 53.0002ZM59.3576 45.9924C57.4481 46.8962 56.4549 48.5159 56.575 50.4452C56.6838 52.1881 57.7439 53.6551 59.3576 54.2218C59.3576 51.4889 59.3576 48.7791 59.3576 45.9924ZM121.606 54.2617C123.491 53.5221 124.566 51.7678 124.426 49.8262C124.296 48.0345 123.113 46.4694 121.606 46.0969C121.606 48.783 121.606 51.4691 121.606 54.2617Z" stroke="#61884A"/>
<path fill-rule="evenodd" clip-rule="evenodd" d="M79.4242 18.3599C79.4242 17.8055 79.393 17.2487 79.43 16.6968C79.5489 14.9378 80.8932 13.5033 82.6235 13.2836C83.0873 13.2248 83.5673 13.172 84.0268 13.2268C85.0441 13.3477 85.5796 13.057 85.3784 11.9072C85.318 11.5622 85.3545 11.1944 85.3799 10.8394C85.5343 8.69298 87.0862 7.19027 89.2136 7.13498C89.9951 7.11474 90.7777 7.12313 91.5597 7.13152C94.0116 7.15917 95.5703 8.72606 95.6263 11.2112C95.6702 13.1518 95.6702 13.1518 97.5685 13.2159C100.148 13.3033 101.568 14.7892 101.589 17.4279C101.595 18.1807 101.604 18.9341 101.584 19.6864C101.526 21.9903 99.9906 23.5237 97.7191 23.5622C95.6862 23.5962 95.6862 23.5962 95.6253 25.6459C95.5566 27.9686 94.1222 29.5108 91.8369 29.656C90.9414 29.7132 90.0361 29.7137 89.14 29.655C86.8679 29.5064 85.4291 27.9454 85.3682 25.6286C85.3146 23.5829 85.3146 23.5829 83.3733 23.5627C80.9663 23.5375 79.4466 22.0017 79.4057 19.5501C79.3988 19.1542 79.4047 18.7578 79.4047 18.3614C79.412 18.3599 79.4178 18.3599 79.4242 18.3599ZM82.9334 18.1546C82.9334 19.9831 82.9334 19.9831 84.5169 19.988C84.7123 19.9885 84.9077 19.9861 85.1031 19.9925C87.2943 20.0645 88.8262 21.6147 88.892 23.8332C88.9071 24.3476 88.9159 24.8635 88.8925 25.3774C88.8696 25.8765 89.0703 26.0552 89.5649 26.11C91.9422 26.3736 92.0489 26.2966 92.1001 23.9398C92.1507 21.627 93.6559 20.0641 95.9026 19.9915C98.1522 19.9189 98.1298 19.9194 98.0782 17.6244C98.065 17.0265 97.9422 16.7644 97.299 16.8004C96.6398 16.837 95.9659 16.8157 95.313 16.719C93.4434 16.442 92.1805 14.9823 92.1079 13.0673C92.0869 12.5135 92.102 11.9586 92.0981 11.4042C92.0966 11.1682 92.122 10.7985 91.891 10.7817C90.9989 10.7175 90.0658 10.5862 89.216 10.7817C88.5597 10.9327 88.9198 11.7463 88.9134 12.2479C88.874 15.4024 87.5111 16.8552 84.3898 16.7856C83.1697 16.7585 82.5967 17.0344 82.9334 18.1546Z" stroke="#61884A"/>
<path fill-rule="evenodd" clip-rule="evenodd" d="M91.616 53.6814C84.4374 53.6769 78.4641 53.7576 72.5031 54.1745C71.3816 54.2532 70.4161 54.0057 69.4601 53.4757C66.9938 52.1096 64.9645 50.2829 63.405 47.9287C63.0868 47.4479 62.9203 46.976 62.9533 46.3899C63.0578 44.5356 63.1617 42.6789 63.1755 40.8227C63.1809 40.1126 63.505 39.9025 64.0867 39.7066C68.9655 38.063 73.9601 36.9016 79.0557 36.2171C91.7096 34.5164 104.126 35.6035 116.303 39.4719C117.399 39.8198 117.922 40.2273 117.856 41.4693C117.777 42.9619 117.925 44.4707 118.039 45.9676C118.106 46.8411 117.893 47.5621 117.373 48.2707C116.334 49.683 115.166 50.9556 113.774 52.0215C111.778 53.549 109.705 54.3639 107.013 54.1203C101.502 53.6199 95.951 53.6563 91.616 53.6814ZM79.5719 47.8864C79.5369 46.8042 79.3039 45.7772 78.6262 44.9032C77.6469 43.64 76.2491 43.6316 75.2265 44.8614C73.9547 46.3904 73.9567 49.4001 75.2304 50.931C76.256 52.1637 77.6317 52.1485 78.6247 50.8744C79.3049 50.0014 79.5354 48.9744 79.5719 47.8864ZM106.715 47.8509C106.727 46.7855 106.49 45.7634 105.796 44.8929C104.798 43.6385 103.395 43.6361 102.395 44.8712C101.107 46.4617 101.117 49.3769 102.416 50.9404C103.404 52.1298 104.751 52.146 105.74 50.961C106.481 50.0713 106.729 49.0123 106.715 47.8509Z" stroke="#61884A"/>
<path fill-rule="evenodd" clip-rule="evenodd" d="M90.6462 76C84.9556 75.9431 79.2665 75.8049 73.5793 75.5745C72.7431 75.541 72.4774 75.2961 72.346 74.4346C71.5482 69.2045 71.5556 63.9933 72.3425 58.7617C72.4813 57.8398 72.8485 57.7046 73.6113 57.6637C79.7315 57.3395 85.8552 57.2377 91.9819 57.2512C97.2788 57.2626 102.572 57.3948 107.862 57.6697C108.609 57.7086 108.904 57.9052 109.031 58.7333C109.838 64.0033 109.831 69.2553 109.025 74.5249C108.894 75.3759 108.576 75.5356 107.831 75.5675C102.106 75.8119 96.3772 75.9451 90.6462 76Z" stroke="#61884A"/>
<path fill-rule="evenodd" clip-rule="evenodd" d="M90.6369 79.2072C93.8288 79.2072 97.0216 79.2316 100.214 79.1898C100.957 79.1798 101.275 79.3238 101.204 80.1536C101.096 81.425 101.3 82.7108 101.011 83.9811C100.41 86.6165 98.1878 88.5497 95.5248 88.5915C92.2931 88.6419 89.0595 88.6339 85.8274 88.6015C82.5712 88.5686 80.0789 86.0922 79.9666 82.7765C79.9273 81.6278 79.4882 80.1501 80.1378 79.414C80.7491 78.7208 82.217 79.2645 83.3071 79.2556C85.7504 79.2346 88.1936 79.2491 90.6369 79.2491C90.6369 79.2351 90.6369 79.2212 90.6369 79.2072Z" stroke="#61884A"/>
<path fill-rule="evenodd" clip-rule="evenodd" d="M68.1318 72.1735C65.2533 69.4994 63.639 66.4045 63.2774 62.7313C62.9679 59.587 62.8941 56.4136 62.9862 53.0408C64.666 54.657 66.3632 56.0013 68.3141 56.9668C68.9746 57.2941 68.5749 57.9163 68.5098 58.3606C68.0373 61.5834 67.8136 64.8198 67.8989 68.0756C67.9322 69.3544 68.0416 70.6293 68.1318 72.1735Z" stroke="#61884A"/>
<path fill-rule="evenodd" clip-rule="evenodd" d="M118.05 53.0408C117.881 57.1456 118.181 60.992 117.28 64.7485C116.62 67.5057 114.951 70.0703 112.843 71.7908C112.843 71.3521 112.814 70.9807 112.848 70.6147C113.224 66.5049 113.03 62.4158 112.357 58.3528C112.214 57.4925 112.376 57.0169 113.217 56.6283C114.964 55.8196 116.435 54.5761 118.05 53.0408Z" stroke="#61884A"/>
<path fill-rule="evenodd" clip-rule="evenodd" d="M59.5046 46.1531C59.5046 48.8741 59.5046 51.5202 59.5046 54.1888C57.736 53.6354 56.5733 52.203 56.454 50.501C56.3224 48.6172 57.4112 47.0356 59.5046 46.1531Z" stroke="#61884A"/>
<path fill-rule="evenodd" clip-rule="evenodd" d="M121.494 54.1888C121.494 51.4404 121.494 48.7967 121.494 46.1531C123.123 46.5197 124.403 48.06 124.542 49.8234C124.694 51.7343 123.532 53.4608 121.494 54.1888Z" stroke="#61884A"/>
<path fill-rule="evenodd" clip-rule="evenodd" d="M82.943 18.1159C82.6056 16.9848 83.1801 16.7056 84.4053 16.7335C87.5372 16.8038 88.9046 15.3361 88.9442 12.151C88.9506 11.644 88.5893 10.8224 89.2478 10.6703C90.1005 10.4729 91.0367 10.6055 91.9319 10.6703C92.1636 10.6873 92.1382 11.0607 92.1397 11.299C92.1436 11.8588 92.1284 12.4197 92.1494 12.9786C92.2223 14.9124 93.4895 16.3865 95.3654 16.6662C96.0205 16.7639 96.6967 16.7854 97.3582 16.7485C98.003 16.7121 98.1262 16.9768 98.1399 17.5805C98.1917 19.8982 98.2142 19.8977 95.957 19.971C93.7027 20.0443 92.1925 21.6226 92.1416 23.9583C92.0903 26.3383 91.9832 26.416 89.5979 26.1498C89.1011 26.0945 88.9002 25.914 88.9232 25.41C88.9467 24.891 88.9379 24.3701 88.9227 23.8506C88.8567 21.6102 87.3191 20.0453 85.121 19.972C84.925 19.9655 84.7289 19.9685 84.5329 19.9675C82.943 19.963 82.943 19.963 82.943 18.1159Z" stroke="#61884A"/>
<path fill-rule="evenodd" clip-rule="evenodd" d="M79.4022 47.8659C79.3685 48.9727 79.1516 50.018 78.5129 50.907C77.5805 52.2036 76.2888 52.2196 75.3259 50.9645C74.1299 49.4064 74.128 46.3433 75.3222 44.7872C76.2823 43.5356 77.5948 43.5447 78.5143 44.8298C79.1506 45.7193 79.3694 46.7645 79.4022 47.8659Z" stroke="#61884A"/>
<path fill-rule="evenodd" clip-rule="evenodd" d="M106.572 47.8306C106.585 49.013 106.351 50.0912 105.652 50.9966C104.721 52.2036 103.453 52.1865 102.522 50.9755C101.298 49.3838 101.288 46.4156 102.502 44.7963C103.444 43.5392 104.765 43.5417 105.706 44.8183C106.359 45.7052 106.583 46.7458 106.572 47.8306Z" stroke="#61884A"/>
<path d="M127.584 132.5H136.417V123.667H127.584V132.5ZM132.001 61.8333C107.621 61.8333 87.834 81.62 87.834 106C87.834 130.38 107.621 150.167 132.001 150.167C156.381 150.167 176.167 130.38 176.167 106C176.167 81.62 156.381 61.8333 132.001 61.8333ZM132.001 141.333C112.523 141.333 96.6673 125.478 96.6673 106C96.6673 86.5225 112.523 70.6667 132.001 70.6667C151.478 70.6667 167.334 86.5225 167.334 106C167.334 125.478 151.478 141.333 132.001 141.333ZM132.001 79.5C122.24 79.5 114.334 87.4058 114.334 97.1667H123.167C123.167 92.3083 127.142 88.3333 132.001 88.3333C136.859 88.3333 140.834 92.3083 140.834 97.1667C140.834 106 127.584 104.896 127.584 119.25H136.417C136.417 109.313 149.667 108.208 149.667 97.1667C149.667 87.4058 141.761 79.5 132.001 79.5Z" fill="#3F6328"/>
</svg>
