<?xml version="1.0" encoding="utf-8"?>
<!-- Generator: Adobe Illustrator 16.0.3, SVG Export Plug-In . SVG Version: 6.00 Build 0)  -->
<!DOCTYPE svg PUBLIC "-//W3C//DTD SVG 1.1//EN" "http://www.w3.org/Graphics/SVG/1.1/DTD/svg11.dtd">
<svg version="1.1" id="Capa_1" xmlns="http://www.w3.org/2000/svg" xmlns:xlink="http://www.w3.org/1999/xlink" x="0px" y="0px"
	 width="566.93px" height="354.33px" viewBox="0 0 566.93 354.33" enable-background="new 0 0 566.93 354.33" xml:space="preserve">
<path fill-rule="evenodd" clip-rule="evenodd" fill="#FFFFFF" stroke="#3F6328" stroke-width="3" d="M388.458,347.288"/>
<path fill-rule="evenodd" clip-rule="evenodd" fill="none" stroke="#3F6328" stroke-width="3" d="M167.485,9.33
	c-5.699,2.623-9.984,6.495-10.797,12.773c-4.759,0.275-9.153-0.295-13,0.897c-14.581,4.522-29.036,9.473-43.401,14.644
	c-2.212,0.796-4.559,3.263-5.401,5.5C88.065,61.26,78.091,78.546,79.729,98.82c-15.839,5.441-15.738,17.511-8.173,27.111
	c7.295,9.256,14.898,18.271,22.477,27.299c1.515,1.805,2.916,2.896,1.832,5.895c-4.713,13.036-0.929,25.829,9.411,33.509
	c10.537,7.828,23.598,7.539,35.271-0.698c0.988-0.697,2.389-1.464,3.453-1.294c10.251,1.641,20.472,3.474,31.032,5.311
	c-2.071,5.757-4.257,12.735-7.063,19.456c-7.817,18.723-15.738,37.406-23.914,55.974c-6.316,14.345,3.02,31.875,18.212,33.128
	c1.978,0.164,4.609-1.361,5.999-2.933c0.699-0.791-0.259-3.796-1.309-5.147c-0.855-1.103-2.932-1.332-4.515-1.781
	c-9.155-2.599-13.187-11.668-8.89-20.109c1.057-2.075,2.347-4.053,3.201-6.206c9.451-23.809,18.815-47.651,28.28-71.454
	c0.781-1.964,2.125-3.703,3.517-6.072c4.803,11.927,9.205,22.491,13.247,33.192c0.836,2.214,1.167,5.278,0.311,7.368
	c-7.26,17.697-14.837,35.266-22.351,52.859c-1.379,3.228-2.722,6.559,1.535,8.503c3.853,1.76,5.885-0.887,7.31-3.973
	c3.491-7.555,7.022-15.095,10.308-22.738c3.72-8.655,7.189-17.418,10.775-26.151c6.087,8.033,11.975,15.804,18.34,24.206
	c-0.541,1.051-1.605,3.096-2.649,5.149c-7.244,14.246-14.533,28.468-21.7,42.752c-3.319,6.616-3.617,13.521-0.563,20.276
	c4.002,8.854,11.145,13.651,20.785,13.924c10.132,0.285,17.416-4.704,22.038-13.647c9.633-18.635,19.236-37.284,28.932-55.885
	c0.803-1.539,1.945-3.355,3.399-4.026c7.64-3.523,15.43-6.722,23.448-10.151c0.026,0.048,0.521,0.72,0.785,1.474
	c7.594,21.668,15.365,43.274,22.651,65.044c3.6,10.756,12.799,17.831,24.02,17.257c10.766-0.551,20.23-8.503,21.502-19.462
	c0.607-5.237-0.19-11.092-1.984-16.081c-11.424-31.778-23.311-63.391-35.021-95.066c-0.741-2.004-1.842-4.087-1.826-6.125
	c0.183-23.212-9.639-40.799-29.32-52.973c-2.69-1.664-5.327-3.426-8.089-4.963c-5.051-2.811-10.175-5.488-15.525-8.358
	c6.746-9.149,13.449-17.815,19.69-26.803c10.156-14.624,20.426-29.199,29.87-44.281c8.587-13.714,1.46-31.115-13.63-35.284
	c-3.38-0.934-6.619-1.015-7.796,2.938c-1.171,3.935,1.469,5.529,4.906,6.589c9.39,2.897,13.639,12.542,8.118,20.638
	c-16.032,23.512-32.638,46.635-49.098,69.854c-0.627,0.883-2.296,1.889-3.111,1.639c-6.441-1.979-12.792-4.248-19.099-6.403
	c3.487-16.052,3.685-15.911,12.656-28.496c11.015-15.448,21.659-31.16,32.457-46.763c2.068-2.989,3.378-6.208-0.447-8.628
	c-3.929-2.485-5.924,0.502-7.931,3.42c-10.374,15.087-20.829,30.118-31.289,45.147c-0.672,0.965-1.615,1.741-2.776,2.969
	c-1.098-4.19-2.284-7.664-2.827-11.235c-0.281-1.844-0.006-4.273,1.02-5.735c7.747-11.036,8.066-24.135,0.538-34.466
	c-7.71-10.582-20.53-14.495-33.32-9.914c-2.579,0.924-4.102,0.678-6.023-1.37c-10.55-11.249-22.453-20.784-36.33-27.698H167.485z"/>
<path fill-rule="evenodd" clip-rule="evenodd" fill="none" stroke="#3F6328" stroke-width="3" d="M241.929,110.046
	c0.048,42.208-39.397,78.236-81.358,74.312c-26.339-2.465-46.712-23.664-48.221-50.173c-2.533-44.526,37.805-83.655,81.399-78.961
	C222.104,58.276,241.896,80.799,241.929,110.046z M165.497,128.996c12.139-0.093,21.237-9.384,20.83-19.332
	c-0.133-3.253-1.487-5.633-4.928-5.712c-3.145-0.072-4.588,1.964-4.98,5.077c-0.893,7.092-2.968,9.215-9.964,10.091
	c-3.353,0.42-5.824,2.011-4.951,5.316C162.062,126.549,164.677,128.118,165.497,128.996z M207.608,87.504
	c0.016-3.232-6.944-10.335-10.194-10.403c-3.438-0.073-6.432,3.646-4.545,6.364c2.284,3.289,5.378,6.287,8.734,8.472
	C204.226,93.643,207.591,90.787,207.608,87.504z M138.218,135.253c-0.672,0.481-2.555,1.144-3.065,2.376
	c-0.6,1.447-0.64,3.831,0.196,5.025c1.776,2.538,4.067,4.854,6.568,6.683c1.199,0.877,3.691,1.084,4.989,0.414
	c1.284-0.662,2.371-2.751,2.533-4.32C149.758,142.34,142.199,135.202,138.218,135.253z"/>
<path fill-rule="evenodd" clip-rule="evenodd" fill="none" stroke="#3F6328" stroke-width="3" d="M313.312,181.055
	c-2.014,5.254-3.243,10.184-5.647,14.451c-13.394,23.774-32.037,42.375-56.019,55.511c-2.035,1.115-4.215,2.02-6.412,2.778
	c-7.832,2.704-11.97,1.513-16.911-5.091c-12.906-17.249-22.037-36.389-28.348-56.941c-0.833-2.711-0.41-4.164,2.277-5.477
	c18.61-9.086,32.372-23.053,41.646-41.575c0.59-1.177,3.233-2.387,4.468-2.027c21.938,6.417,42.288,16.122,60.158,30.521
	C310.732,174.985,311.694,178.312,313.312,181.055z"/>
<path fill-rule="evenodd" clip-rule="evenodd" fill="none" stroke="#3F6328" stroke-width="3" d="M320.802,194.053
	c0.449,4.26,0.777,8.537,1.383,12.775c0.571,3.994,0.871,8.157,2.257,11.886c9.797,26.344,19.845,52.592,29.792,78.879
	c0.276,0.731,0.32,1.551,0.393,1.917c-8.663,2.472-17.065,4.868-25.884,7.385c-3.324-9.204-6.762-18.879-10.313-28.51
	c-3.164-8.584-6.384-17.149-9.716-25.67c-1.973-5.043-5.031-5.975-9.158-2.581c-7.844,6.452-16.563,10.982-26.377,13.659
	c-1.917,0.523-3.881,2.573-4.898,4.427c-6.647,12.103-13.039,24.345-19.513,36.542c-0.853,1.604-1.697,3.212-2.543,4.813
	c-8.19-4.002-16.184-7.906-24.466-11.954c5.241-10.064,10.483-20.253,15.897-30.351c0.604-1.127,2.1-2.303,3.327-2.487
	c12.49-1.873,22.662-8.505,32.39-15.847C292.886,234.209,308.843,216.393,320.802,194.053z"/>
<path fill-rule="evenodd" clip-rule="evenodd" fill="none" stroke="#3F6328" stroke-width="3" d="M205.088,46.326
	c-30.334-5.694-56.089,3.005-77.407,24.2c-21.411,21.287-29.485,47.225-23.358,77.967c-1.647-1.043-2.769-1.425-3.405-2.205
	c-7.456-9.133-15.165-18.086-22.124-27.586c-4.391-5.995-2.5-9.109,4.792-9.685c6.663-0.525,7.885-1.942,6.637-8.51
	c-1.711-9-0.072-17.595,2.954-25.989c3.046-8.451,6.327-16.821,9.698-25.149c0.557-1.377,1.89-2.938,3.224-3.424
	c12.177-4.43,24.307-9.081,36.734-12.69c4.716-1.369,10.217-0.614,15.278-0.068c6.023,0.648,7.831-0.471,8.234-6.673
	c0.484-7.437,3.072-8.892,9.509-5.175C187.022,27.789,196.704,36.029,205.088,46.326z"/>
<path fill-rule="evenodd" clip-rule="evenodd" fill="none" stroke="#3F6328" stroke-width="3" d="M217.38,306.509
	c8.403,4.165,16.209,8.034,24.437,12.112c-2.196,4.339-3.722,7.825-5.654,11.067c-3.682,6.176-11.048,8.361-17.365,5.396
	c-6.503-3.054-9.584-10.409-6.922-17.245C213.253,314.301,215.184,310.978,217.38,306.509z"/>
<path fill-rule="evenodd" clip-rule="evenodd" fill="none" stroke="#3F6328" stroke-width="3" d="M348.374,336.377
	c-7.271-0.322-11.763-4.045-13.804-10.438c-2.852-8.922-2.809-9.395,5.938-12.32c4.682-1.565,9.659-2.3,14.545-3.172
	c1.1-0.196,2.794,0.217,3.497,0.997c3.17,3.512,3.554,14.328,0.778,18.565C356.464,334.384,352.332,336.469,348.374,336.377z"/>
<path fill-rule="evenodd" clip-rule="evenodd" fill="none" stroke="#3F6328" stroke-width="3" d="M242.805,74.492
	c-4.247-4.682-7.922-9.467-12.35-13.407c-4.432-3.944-9.615-7.044-14.436-10.489c5.529-5.689,15.711-5.832,22.769-0.104
	C246.189,56.497,247.86,66.545,242.805,74.492z"/>
<path fill-rule="evenodd" clip-rule="evenodd" fill="none" stroke="#3F6328" stroke-width="3" d="M132.511,185.227
	c-9.134,5.188-18.709,3.529-24.615-3.58c-5.673-6.83-5.669-16.705,0.313-23.493C113.761,169.236,121.536,178.271,132.511,185.227z"
	/>
<path fill-rule="evenodd" clip-rule="evenodd" fill="none" stroke="#3F6328" stroke-width="3" d="M165.497,128.996
	c-0.82-0.878-3.435-2.447-3.993-4.559c-0.874-3.305,1.598-4.896,4.951-5.316c6.996-0.876,9.071-2.999,9.964-10.091
	c0.392-3.113,1.836-5.149,4.98-5.077c3.441,0.079,4.794,2.458,4.928,5.712C186.733,119.611,177.636,128.903,165.497,128.996z"/>
</svg>
